<svg width="71" height="70" viewBox="0 0 71 70" fill="none" xmlns="http://www.w3.org/2000/svg">
<path d="M23.6823 69.04C21.9523 64.37 23.6523 60.92 28.2523 59.89C29.8823 59.52 30.7423 58.63 30.7423 56.97C30.7523 49.51 30.7423 42.06 30.7723 34.6C30.7723 32.99 29.8023 32.84 28.5623 32.85C23.5023 32.87 18.4423 32.87 13.3823 32.85C9.79228 32.84 7.22228 30.62 7.18228 27.54C7.14228 24.46 9.71229 22.14 13.2823 22.07C14.9923 22.04 16.7023 22.09 18.4123 22.05C19.1923 22.03 20.1623 22.33 20.6423 21.45C21.2023 20.41 20.4923 19.61 19.8823 18.85C17.9423 16.49 16.0023 14.14 14.0523 11.79C13.3523 10.94 12.3423 10.16 12.9123 8.88C13.4223 7.72001 14.5923 7.73001 15.6223 7.78001C17.4923 7.88001 17.6423 7.14 16.8523 5.69C16.3523 4.78 16.1923 3.74001 17.2623 3.13C18.4723 2.43 19.2023 3.29 19.7723 4.23C20.1923 4.93 20.5223 5.69 20.9523 6.39C22.0723 8.24 23.7023 8.26 24.9623 6.45C26.8323 3.78 29.2923 2.73001 32.0323 3.42001C35.4223 4.29001 37.3223 7.23 36.7323 10.7C36.2223 13.69 33.1923 15.94 30.0023 15.69C27.8123 15.52 24.6023 18.01 24.2623 20.16C24.0723 21.35 24.5323 22.03 25.8023 22.04C26.9923 22.05 28.1823 22.04 29.3723 22.12C30.4323 22.19 31.3223 22.63 31.2223 23.88C31.1323 25.03 30.2323 25.24 29.2723 25.26C28.6823 25.27 28.0823 25.28 27.4823 25.28C22.9423 25.28 18.4023 25.28 13.8723 25.28C12.2923 25.28 10.6023 25.54 10.6223 27.49C10.6423 29.46 12.3423 29.6 13.9223 29.6C28.2023 29.6 42.4923 29.6 56.7723 29.6C57.2923 29.6 57.8323 29.6 58.3223 29.48C59.3523 29.23 60.0623 28.59 60.1023 27.47C60.1423 26.41 59.4323 25.8 58.5423 25.54C57.7723 25.32 56.9323 25.29 56.1223 25.28C51.7323 25.26 47.3423 25.28 42.9523 25.26C41.7923 25.26 40.2623 25.49 40.2223 23.77C40.1823 21.92 41.8023 22.2 43.0223 22.04C44.0423 21.9 45.4523 22.56 45.8623 21.02C46.2823 19.45 44.8023 19.29 43.8923 18.78C40.5623 16.91 38.9923 13.05 40.3523 9.38C41.2023 7.09 41.7623 4.85 41.4123 2.41C41.1923 0.840004 41.8923 0 43.5223 0C46.3523 0 49.1723 0 52.0023 0C53.6723 0 54.5223 0.750002 54.2323 2.51C53.8723 4.71 54.2823 6.76001 55.0523 8.85001C56.7323 13.38 55.3223 16.82 51.0223 19.09C50.1823 19.54 49.3923 19.93 49.6823 21.07C49.9623 22.16 50.8923 22.02 51.6823 22.04C53.6923 22.07 55.7023 22.01 57.7123 22.08C61.1323 22.2 63.5623 24.58 63.4623 27.64C63.3623 30.63 60.9623 32.81 57.6223 32.83C52.4123 32.87 47.2023 32.91 42.0023 32.81C40.1123 32.77 39.3623 33.3 39.3923 35.32C39.5023 42.1 39.4123 48.89 39.4423 55.68C39.4523 58.87 39.8023 59.25 42.9723 60.02C45.2623 60.59 46.8723 62.42 46.9823 64.79C47.0523 66.2 46.9223 67.62 46.8823 69.03H44.2023C44.0423 68.31 43.6923 67.57 43.7523 66.86C43.9623 64.4 42.9823 63.23 40.4923 62.78C37.6523 62.27 36.2923 60.36 36.1923 57.33C36.1023 54.58 36.1623 51.82 36.1623 49.07C36.1623 44.6 36.2023 40.13 36.1323 35.67C36.1123 34.7 36.7323 33.03 35.0123 33.05C33.4823 33.06 34.1423 34.63 34.0023 35.56C33.9223 36.07 33.9923 36.6 33.9923 37.12C33.9923 43.75 33.9723 50.37 34.0023 57C34.0123 59.16 33.3923 60.97 31.5123 62.17C29.1523 63.68 26.8423 66.47 25.9023 69.04H23.6723H23.6823ZM47.7323 9.14C48.7723 8.42 50.9123 10.21 51.0423 7.75C51.2423 3.66 50.8723 3.31001 47.7823 3.31001C44.7823 3.31001 44.3023 3.83 44.5723 7.8C44.7223 10.03 46.6923 8.52001 47.7423 9.13L47.7323 9.14ZM47.7923 16.42C49.5723 16.28 51.1323 15.73 51.9623 13.98C52.4523 12.96 52.3423 12.27 50.9523 12.3C49.3323 12.34 47.7023 12.25 46.0823 12.33C45.1923 12.38 43.8223 11.77 43.5123 12.84C43.1523 14.06 44.2823 14.97 45.2723 15.66C46.0223 16.18 46.9023 16.33 47.7923 16.41V16.42Z" fill="#574132"/>
<path d="M0.0222778 29.66C2.30228 28.97 3.00229 29.44 3.14229 31.79C3.32229 34.85 4.91895 36.38 7.93228 36.38C10.7523 36.38 13.5823 36.34 16.4023 36.4C20.0923 36.48 22.4823 38.8 22.4323 42.14C22.3823 45.42 20.0323 47.58 16.4323 47.65C15.8423 47.66 15.2423 47.69 14.6523 47.65C13.2523 47.54 12.6323 48.1 12.6523 49.58C12.7023 54.5 12.7023 59.41 12.6523 64.33C12.6323 65.8 13.2323 66.34 14.6423 66.27C15.9023 66.21 17.1723 66.3 18.4323 66.25C20.4023 66.18 21.4423 66.91 21.0123 69.04H1.37228C0.792284 67.04 1.67228 66.24 3.60228 66.26C4.79228 66.27 5.99229 66.19 7.17229 66.27C8.83229 66.39 9.39228 65.67 9.37228 64.05C9.30228 59.35 9.29228 54.65 9.37228 49.96C9.40228 48.2 8.77229 47.49 7.03229 47.66C3.91229 47.96 1.49229 46.88 0.0322876 43.99V29.67L0.0222778 29.66ZM10.6323 39.63C10.6323 39.63 10.6323 39.61 10.6323 39.6C8.85228 39.6 7.07228 39.68 5.29228 39.58C3.39228 39.48 2.99228 40.44 3.21228 42.07C3.43228 43.71 4.48228 44.36 5.98228 44.38C9.46228 44.41 12.9523 44.42 16.4323 44.38C17.9223 44.36 19.1023 43.74 19.0923 42.04C19.0823 40.36 17.8723 39.73 16.4123 39.67C14.4923 39.59 12.5623 39.65 10.6323 39.65V39.63Z" fill="#574132"/>
<path d="M49.5723 69.04C48.9023 67.04 49.2623 66.39 51.2223 66.29C52.8523 66.21 54.4923 66.22 56.1223 66.27C57.4623 66.31 57.9823 65.72 57.9623 64.4C57.9223 61.72 57.9523 59.04 57.9623 56.36C57.9623 55.2 58.0223 53.92 59.5523 53.91C61.0423 53.9 61.2323 55.13 61.2523 56.31C61.2723 58.77 61.3923 61.23 61.2323 63.68C61.0923 65.81 61.9623 66.48 63.9423 66.29C65.1223 66.18 66.3223 66.23 67.5023 66.29C69.3623 66.38 70.1423 67.2 69.2023 69.05H49.5623L49.5723 69.04Z" fill="#574132"/>
<path d="M59.3423 47.6501C57.4123 47.6501 55.4823 47.7001 53.5523 47.6401C50.2423 47.5301 47.7923 45.1401 47.7623 42.0601C47.7323 39.0501 49.9723 36.6001 53.2623 36.4601C57.1923 36.2901 61.1323 36.3101 65.0723 36.4201C67.0523 36.4701 68.0223 35.8901 67.7723 33.7701C67.6623 32.8201 67.7523 31.8401 67.7923 30.8701C67.8423 29.9201 68.3323 29.2801 69.3123 29.3101C70.1823 29.3401 70.6323 29.9801 70.6323 30.8201C70.6323 35.0601 70.7523 39.3101 70.5223 43.5401C70.4023 45.8101 68.0123 47.5001 65.3523 47.6201C63.3523 47.7101 61.3423 47.6401 59.3323 47.6401L59.3423 47.6501ZM59.4423 44.4101C59.4423 44.4101 59.4423 44.3301 59.4423 44.2901C61.4423 44.2901 63.4623 44.4401 65.4423 44.2501C67.3023 44.0701 67.7223 42.5401 67.7023 40.9401C67.6723 39.1201 66.2123 39.6301 65.2123 39.6201C61.5723 39.5701 57.9423 39.5901 54.3023 39.6201C52.6823 39.6301 51.1723 40.0901 51.1723 42.0101C51.1723 43.9301 52.7223 44.3601 54.3223 44.4001C56.0323 44.4501 57.7323 44.4101 59.4423 44.4101Z" fill="#574132"/>
</svg>
