<svg width="66" height="43" viewBox="0 0 66 43" fill="none" xmlns="http://www.w3.org/2000/svg">
<path d="M65.6254 32.0114C65.6254 34.5414 65.6654 37.0614 65.6254 39.5914C65.5754 42.0614 64.8054 42.6314 62.4154 42.0014C60.0754 41.3814 58.4354 39.8614 57.8154 37.5814C57.3454 35.8714 56.5654 35.6714 55.1054 36.1714C51.8454 37.2914 48.3354 37.5614 45.3754 39.7514C43.8054 40.9114 41.6454 40.6514 39.8854 39.5114C38.1254 38.3714 37.5954 36.6014 38.0254 34.6414C38.2954 33.3914 38.0054 32.3014 37.6654 31.1614C37.4054 30.2914 37.0354 29.7314 35.9454 29.9214C34.7154 30.1314 33.6854 29.5914 33.2854 28.3914C32.7854 26.8914 31.8554 27.0314 30.6654 27.3814C25.7454 28.8114 20.8154 30.1914 15.8854 31.5714C14.6254 31.9214 13.3354 32.5214 12.3354 30.9214C11.8554 30.1514 10.9754 30.5214 10.2954 30.7914C8.42538 31.5314 7.56537 30.7314 7.09537 28.9514C6.38537 26.3014 5.49538 23.7014 4.76538 21.0514C4.40538 19.7314 3.76539 18.8314 2.42539 18.3414C1.04539 17.8414 -0.114628 16.9914 0.0353716 15.2614C0.185372 13.4714 1.46539 12.8214 2.99539 12.4014C17.6654 8.38136 32.3154 4.33136 46.9854 0.311359C50.3654 -0.618641 52.3654 0.521358 53.3954 3.91136C54.6254 7.96136 55.8554 12.0114 57.0054 16.0814C57.7454 18.7014 57.0054 20.0214 54.4254 20.8314C52.2354 21.5214 50.0054 22.1014 47.7854 22.7214C47.3554 22.8414 46.9154 22.9314 46.5154 23.1114C46.2654 23.2214 45.8654 23.6014 45.9054 23.6714C47.2054 26.2414 43.5054 27.3814 44.1854 29.7414C44.7054 31.5514 45.9454 32.2914 47.7454 31.8514C50.5554 31.1714 53.3354 30.3614 56.1354 29.6414C57.3254 29.3314 57.4454 28.4714 57.5654 27.4414C57.8954 24.6314 60.1054 22.2914 62.7854 21.7714C64.8754 21.3614 65.5554 21.8414 65.6154 23.9714C65.6854 26.6414 65.6354 29.3214 65.6354 31.9914L65.6254 32.0114ZM15.0654 29.2014C16.0254 28.9814 16.5354 28.8914 17.0354 28.7514C27.9654 25.7214 38.9054 22.7314 49.8054 19.6414C56.0054 17.8814 55.2054 18.9914 53.5854 12.8114C53.0254 10.6614 52.1154 10.1314 49.9454 10.7614C39.4054 13.7814 28.8154 16.6614 18.2454 19.5814C13.8921 20.788 12.4954 23.5247 14.0554 27.7914C14.1354 28.0014 14.2054 28.2114 14.2854 28.4114C14.5154 28.9614 14.8954 29.2414 15.0554 29.2014H15.0654ZM10.6854 19.1414C11.4354 18.9414 12.0054 18.7914 12.5754 18.6314C16.8654 17.4314 21.1554 16.2214 25.4454 15.0414C33.5254 12.8114 41.6154 10.5914 49.7054 8.34136C50.4454 8.13136 51.4054 8.16136 51.6454 7.12136C52.2754 4.36136 49.8454 2.02136 47.1054 2.76136C36.5054 5.64136 25.9054 8.53136 15.3054 11.4314C11.5854 12.4514 7.8654 13.5014 4.1554 14.5614C3.6754 14.7014 3.07538 14.7114 2.85538 15.2914C2.73538 15.6114 2.93537 15.8814 3.22537 16.0014C5.74537 17.0714 8.2754 18.1314 10.6854 19.1514V19.1414ZM62.9554 31.8914C62.9554 30.2614 63.0154 28.6214 62.9254 26.9914C62.8854 26.1914 63.4454 24.9214 62.3154 24.7214C61.3054 24.5414 60.7254 25.6814 60.3254 26.5514C60.0854 27.0714 59.9654 27.6914 59.9554 28.2714C59.9154 30.7214 59.9454 33.1714 59.9354 35.6214C59.9354 36.8014 60.3854 37.7914 61.2254 38.6014C61.5954 38.9514 61.9954 39.4114 62.5654 39.1114C63.0254 38.8714 62.9254 38.3414 62.9354 37.9114C62.9454 35.9014 62.9354 33.9014 62.9454 31.8914H62.9554ZM43.1054 38.0514C44.5354 37.9014 45.4754 37.1814 45.4154 35.6414C45.3554 34.2014 44.4154 33.5114 43.0354 33.5814C41.6954 33.6514 40.4554 34.1114 40.4054 35.7114C40.3454 37.4614 41.6554 37.8714 43.1054 38.0514Z" fill="#ffffff"/>
</svg>
