<svg width="66" height="66" viewBox="0 0 66 66" fill="none" xmlns="http://www.w3.org/2000/svg">
<path d="M33.0399 65.8775C24.3099 65.8775 15.5699 65.8975 6.83992 65.8575C5.63992 65.8575 3.93992 66.3875 3.44992 64.9175C2.92992 63.3575 2.64992 61.4575 3.78992 59.9875C4.50992 59.0575 4.66992 58.1575 4.66992 57.0975C4.66992 50.1575 4.64992 43.2175 4.68992 36.2775C4.68992 34.8075 4.39992 33.8375 2.89992 33.1075C0.25992 31.8075 -0.530081 29.4775 0.429919 26.7175C1.35992 24.0375 2.29992 21.3675 3.33992 18.7275C5.06992 14.3275 6.39992 9.91752 6.02992 5.05752C5.77992 1.71752 7.51992 0.0575 10.8899 0.0375C25.5899 -0.0125 40.2999 -0.0125 54.9999 0.0375C58.2899 0.0475 60.1599 1.5875 59.8899 4.5375C59.3199 10.6975 61.7499 16.0775 63.7299 21.6075C64.3599 23.3675 65.0399 25.0975 65.6299 26.8675C66.5499 29.5975 65.6499 31.9575 62.9999 33.1675C61.5999 33.8075 61.2099 34.6375 61.2199 36.0875C61.2799 43.1775 61.2499 50.2675 61.2499 57.3575C61.2499 58.3375 61.3599 59.1675 62.1999 59.9475C63.6499 61.3075 63.1499 63.1975 62.7699 64.7975C62.4099 66.3275 60.8199 65.8675 59.6999 65.8775C50.8199 65.9075 41.9399 65.8975 33.0499 65.8975L33.0399 65.8775ZM32.8699 59.5975C40.8499 59.5975 48.8399 59.5675 56.8199 59.6275C58.6199 59.6375 59.3799 59.0775 59.3199 57.1875C59.2099 53.6875 59.2899 50.1775 59.2899 46.6675C59.2899 42.9375 59.3299 39.2075 59.2699 35.4775C59.2299 32.8675 56.8699 31.5675 54.7199 32.8475C52.5099 34.1575 50.2799 34.1175 48.2499 32.5275C47.4099 31.8675 46.9299 31.7275 45.9999 32.4475C43.7499 34.2075 41.4299 34.2375 39.2399 32.5275C38.2699 31.7775 37.7299 31.8575 36.7699 32.5075C34.2299 34.2175 31.5699 34.2575 29.0799 32.3775C28.2599 31.7575 27.7899 31.8375 26.9799 32.4175C24.4099 34.2575 22.3799 34.2275 19.8199 32.3475C19.0699 31.7975 18.6599 31.8075 17.9199 32.3475C15.2999 34.2375 13.3999 34.2075 10.7699 32.4075C10.3599 32.1275 9.97992 31.4775 9.43992 31.9375C8.15992 33.0375 6.46992 33.6075 6.54992 35.9875C6.75992 42.9175 6.68992 49.8575 6.57992 56.7975C6.54992 58.9375 7.20992 59.6575 9.36992 59.6275C17.1999 59.5275 25.0399 59.5875 32.8699 59.5875V59.5975ZM32.9099 10.6475C39.8499 10.6475 46.7899 10.6575 53.7299 10.6475C58.3699 10.6375 58.0099 11.1275 58.0199 6.26751C58.0199 2.21751 57.7299 1.9075 53.7299 1.9075C40.4499 1.9075 27.1599 1.9075 13.8799 1.9075C7.79992 1.9075 7.87992 1.9075 7.82992 8.0075C7.81992 10.0475 8.44992 10.7275 10.5199 10.6975C17.9799 10.5975 25.4399 10.6575 32.9099 10.6575V10.6475ZM32.6999 63.9675C35.9099 63.9675 39.1199 63.9675 42.3299 63.9675C47.9299 63.9675 53.5299 63.9675 59.1299 63.9675C60.0299 63.9675 61.0399 64.0275 60.9999 62.6775C60.9599 61.4675 60.0399 61.5475 59.2199 61.5175C58.8499 61.5075 58.4699 61.5175 58.0999 61.5175C41.3799 61.5175 24.6499 61.5175 7.92992 61.5175C7.18992 61.5175 6.42992 61.5275 5.69992 61.6575C5.09992 61.7575 4.89992 62.2775 4.90992 62.8475C4.90992 63.4475 5.19992 63.8675 5.81992 63.9175C6.48992 63.9675 7.15992 63.9775 7.82992 63.9775C16.1199 63.9775 24.3999 63.9775 32.6899 63.9775L32.6999 63.9675ZM14.6799 27.2475C17.0933 27.2475 18.6499 26.0842 19.3499 23.7575C20.0099 21.5475 20.6599 19.3375 21.2999 17.1175C22.7799 12.0075 23.2099 12.6975 17.8399 12.5675C16.1399 12.5275 15.2499 13.1175 14.8099 14.7675C13.9999 17.7875 13.0399 20.7575 12.1299 23.7475C11.4233 26.0742 12.2766 27.2375 14.6899 27.2375L14.6799 27.2475ZM47.0899 12.5975C46.7899 12.5975 46.4899 12.5975 46.1999 12.5975C44.3133 12.6042 43.6366 13.5108 44.1699 15.3175C44.8899 17.7475 45.5399 20.1875 46.3199 22.5975C48.0599 27.9375 46.5799 27.1575 52.8099 27.2675C54.3499 27.2975 54.8199 26.7875 54.3499 25.2875C53.3699 22.1675 52.5099 19.0075 51.5499 15.8675C50.5499 12.5975 50.5299 12.6075 47.0899 12.5975ZM10.0699 12.5975C8.17992 12.1175 7.15992 13.1875 6.54992 15.2475C5.75992 17.8875 4.66992 20.4275 3.73992 23.0275C2.20992 27.3075 2.21992 27.2275 6.70992 27.2875C8.55992 27.3175 9.38992 26.6075 9.84992 24.9075C10.6999 21.7375 11.7299 18.6275 12.6399 15.4675C13.4699 12.5975 13.4499 12.5875 10.0699 12.5975ZM59.7199 27.2475C60.4599 27.2475 60.8299 27.2475 61.1999 27.2475C62.8933 27.2342 63.4499 26.4042 62.8699 24.7575C61.8199 21.8075 60.7899 18.8475 59.6899 15.9075C58.3399 12.3175 58.3199 12.3775 54.5199 12.5775C53.0999 12.6475 52.6399 13.1075 53.0899 14.5175C54.0999 17.7175 55.1699 20.9075 55.9699 24.1675C56.5399 26.4875 57.4499 27.9075 59.7299 27.2475H59.7199ZM32.9299 27.2275C33.7499 27.2275 34.5699 27.2275 35.3799 27.2275C36.3999 27.2275 36.9299 26.7575 36.7899 25.7175C36.3099 21.8875 35.8099 18.0575 35.3199 14.2175C35.1099 12.5675 33.9099 12.6075 32.6599 12.5875C31.3599 12.5575 30.8199 13.0875 30.6699 14.3875C30.3399 17.4175 29.8299 20.4175 29.4699 23.4475C29.0199 27.2475 29.0599 27.2475 32.9099 27.2275H32.9299ZM24.0499 27.2275C25.2099 27.0375 27.1299 27.9175 27.4299 25.4275C27.8499 21.8775 28.3299 18.3375 28.7499 14.7975C28.8499 13.9475 29.0799 12.7975 27.7799 12.6975C26.5499 12.6075 24.9299 11.9675 24.3399 13.7875C23.0999 17.6875 21.9699 21.6275 20.7699 25.5375C20.4099 26.7275 20.8299 27.2375 22.0199 27.2275C22.6199 27.2275 23.2099 27.2275 24.0499 27.2275ZM42.2799 27.2275C43.0299 27.2275 43.7699 27.2275 44.5199 27.2275C45.3199 27.2275 45.5899 26.7775 45.3799 26.0575C44.1499 21.9175 42.9899 17.7575 41.6099 13.6675C41.0299 11.9675 39.3099 12.5775 38.0799 12.7175C36.7099 12.8675 37.2399 14.0175 37.3399 14.8475C37.6899 17.8075 38.0899 20.7575 38.4099 23.7175C38.7899 27.2475 38.7599 27.2475 42.2999 27.2375L42.2799 27.2275Z" fill="#574132"/>
<path d="M42.4499 55.5374C40.5099 55.5374 38.5699 55.6274 36.6399 55.4974C35.5599 55.4274 34.5499 54.8874 35.9299 53.7574C36.9399 52.9374 35.9299 52.5674 35.6499 52.1774C34.3399 50.3474 33.7799 48.3274 33.7699 46.0974C33.7699 44.5174 34.4099 43.7174 36.0399 43.8074C36.7099 43.8474 37.3799 43.7974 38.0499 43.8074C38.9399 43.8274 39.7199 43.8774 39.2599 42.5074C38.8899 41.3774 39.7699 40.1874 39.3199 38.9874C39.2599 38.8274 39.4299 38.4074 39.4999 38.3974C41.3199 38.3274 43.1999 37.9874 44.9299 38.3574C46.0899 38.6074 46.0799 40.1074 45.7299 41.2674C45.1699 43.1374 45.6399 44.1274 47.8099 43.8174C49.4199 43.5974 50.8899 43.9774 52.1799 45.0574C53.9199 46.5174 53.8999 48.6474 51.8699 49.5874C50.3999 50.2574 49.9099 51.5474 49.0599 52.6374C48.8499 52.9074 48.5099 53.1974 48.8799 53.5974C51.0899 55.9874 48.5499 55.2674 47.5799 55.5774C47.4399 55.6174 47.2799 55.5774 47.1299 55.5774C45.5599 55.5774 43.9999 55.5774 42.4299 55.5774V55.5274L42.4499 55.5374ZM42.5699 45.7174C41.0099 45.7174 39.4499 45.7874 37.8899 45.6974C35.8299 45.5874 35.4799 46.6074 35.9099 48.3474C36.6899 51.5474 39.4799 53.7274 42.7399 53.6374C45.9799 53.5474 48.6199 51.1974 49.2299 47.9474C49.5099 46.4474 49.1399 45.6574 47.4699 45.7074C45.8399 45.7574 44.1999 45.7174 42.5699 45.7074V45.7174Z" fill="#574132"/>
<path d="M25.8199 47.9376C25.8199 50.8376 25.7799 53.7476 25.8399 56.6476C25.8799 58.3176 25.2399 59.1476 23.5099 59.1276C19.7899 59.0876 16.0599 59.0976 12.3399 59.1276C10.6399 59.1376 9.9599 58.3776 9.9699 56.6776C10.0199 50.7976 10.0099 44.9076 9.9699 39.0276C9.9699 37.4676 10.5499 36.6576 12.1899 36.6676C15.9899 36.6976 19.7899 36.6976 23.5899 36.6676C25.2099 36.6576 25.8599 37.4176 25.8399 38.9976C25.7999 41.9776 25.8299 44.9576 25.8299 47.9376H25.8199ZM23.9099 47.9776C23.9099 46.7076 23.9099 45.4476 23.9099 44.1776C23.9099 40.4576 22.0699 38.5976 18.3899 38.5976C13.9232 38.5976 11.7632 40.8109 11.9099 45.2376C11.9399 46.1576 11.8299 47.0776 13.1999 47.0476C13.6799 47.0476 14.0299 47.3976 13.9799 47.9376C13.9499 48.3576 13.6399 48.6876 13.2699 48.6876C11.7999 48.7176 11.8999 49.7276 11.8999 50.7176C11.9099 52.2076 11.9599 53.6976 11.8999 55.1876C11.8199 56.7576 12.5299 57.2876 14.0399 57.2476C16.6399 57.1776 19.2499 57.1676 21.8599 57.2476C23.4399 57.2976 23.9699 56.6276 23.9299 55.1176C23.8599 52.7376 23.9099 50.3576 23.9199 47.9676L23.9099 47.9776Z" fill="#574132"/>
<path d="M20.7599 6.28747C20.7599 4.01747 21.7699 2.62748 23.4499 2.61748C25.0999 2.60748 26.1899 4.04748 26.1999 6.26748C26.2099 8.49748 25.1499 9.92748 23.4799 9.92748C21.7799 9.92748 20.7599 8.56748 20.7499 6.29748L20.7599 6.28747Z" fill="#574132"/>
<path d="M50.1699 4.83758C52.5099 6.06758 52.5099 6.18757 50.4899 7.63757C50.8699 8.50757 52.8799 7.90757 52.3599 9.26757C51.8799 10.5076 50.3899 9.79757 49.3399 9.88757C49.1999 9.89757 49.0399 9.84756 48.9099 9.78756C48.1299 9.42756 47.5299 4.65757 48.2499 3.47757C49.1399 2.02757 50.6399 2.55756 51.8699 2.81756C52.7599 3.00756 52.7399 3.75757 51.9199 4.22757C51.4899 4.46757 50.9799 4.56756 50.1699 4.84756V4.83758Z" fill="#574132"/>
<path d="M43.6699 4.90742C45.0166 5.74742 45.0533 6.67743 43.7799 7.69743C44.2299 8.44743 45.7199 7.85743 45.6999 9.16743C45.6999 9.37743 45.3899 9.72741 45.1699 9.77741C44.0699 10.0174 42.9399 10.1374 41.8899 9.63743C41.3799 9.38743 41.3699 8.76744 41.3599 8.23744C41.3399 6.96744 41.3799 5.70742 41.3399 4.43742C41.2999 3.06742 42.0299 2.54743 43.2899 2.63743C44.1299 2.69743 45.3799 2.23742 45.6499 3.31742C45.9799 4.63742 44.3599 4.16743 43.6699 4.91743V4.90742Z" fill="#574132"/>
<path d="M16.2099 9.92752C14.3899 9.98752 13.2499 8.54751 13.2899 6.22751C13.3199 3.99751 14.5999 2.50752 16.3699 2.61752C17.3699 2.67752 18.0299 3.19752 18.3699 4.11752C18.5299 4.53752 18.6999 4.98751 18.3199 5.35751C17.9399 5.72751 17.5099 5.64752 17.1099 5.36752C16.6699 5.06752 16.1899 4.23751 15.7199 5.13751C15.3099 5.91751 15.2899 6.92752 15.7799 7.70752C16.2399 8.42752 16.6399 7.68751 17.0199 7.41751C17.4199 7.12751 17.8699 7.01752 18.2399 7.33752C18.7399 7.76752 18.4799 8.29751 18.2399 8.75751C17.8099 9.54751 17.1099 9.90751 16.2299 9.91751L16.2099 9.92752Z" fill="#574132"/>
<path d="M28.4599 6.46737C28.4599 2.84737 29.1199 2.12737 31.7499 2.65737C32.1999 2.74737 32.6899 2.8074 32.8299 3.3074C33.0099 3.9774 32.5299 4.22739 31.9999 4.39739C30.8399 4.76739 30.4999 5.1674 31.8699 5.8074C32.4899 6.0974 32.5099 6.94739 31.9599 6.98739C30.1699 7.11739 31.2599 10.4574 29.1299 9.60738C27.8999 9.11738 28.6399 7.44737 28.4599 6.46737Z" fill="#574132"/>
<path d="M36.7199 4.95739C38.8599 5.94739 39.0399 6.74738 37.2999 7.72738C36.6199 8.11738 37.2599 10.0974 35.7899 9.64739C34.4599 9.23739 35.1999 7.70738 35.0499 6.66738C34.9699 6.08738 35.0199 5.47738 35.0499 4.88738C35.1099 2.88738 36.9299 1.83737 38.7399 2.77737C39.5499 3.19737 39.6299 3.76738 38.8099 4.25738C38.3799 4.50738 37.8499 4.59737 36.7299 4.96737L36.7199 4.95739Z" fill="#574132"/>
</svg>
