<svg width="69" height="69" viewBox="0 0 69 69" fill="none" xmlns="http://www.w3.org/2000/svg">
<path d="M25.6743 63.53C19.5943 63.53 13.5243 63.48 7.4443 63.56C5.7643 63.58 5.10431 63.14 5.13431 61.35C5.23431 56 5.15431 50.64 5.17431 45.29C5.19431 41.66 7.6943 38.36 11.1543 37.37C13.8643 36.6 16.5843 35.86 19.2943 35.1C21.1643 34.58 21.8343 32.6 20.5443 31.05C19.3643 29.64 18.4243 28.16 18.1043 26.32C18.0443 25.99 17.8143 25.64 17.5643 25.41C14.8843 22.99 14.1743 19.55 15.7243 16.14C15.9043 15.74 15.9743 15.36 15.9143 14.93C15.3243 10.42 16.5843 6.52998 19.8843 3.34998C23.9243 -0.55002 32.4543 -1.32002 36.5043 2.50998C39.8243 5.64998 42.5243 9.54998 41.5743 14.71C41.4743 15.26 41.5143 15.8 41.8143 16.28C43.3743 18.78 42.2843 21.27 41.7843 23.75C41.7443 23.97 41.5843 24.24 41.3943 24.34C38.5243 25.85 38.7143 29.34 36.7243 31.5C35.5043 32.82 36.5343 34.63 38.3443 35.13C41.0643 35.88 43.7843 36.6 46.4843 37.4C49.7243 38.36 52.1943 41.59 52.3143 45.09C52.3943 47.49 52.2943 49.9 52.3543 52.31C52.3743 53.35 51.9143 53.92 51.0543 54.44C48.2643 56.12 46.4843 58.5 46.5843 61.91C46.6243 63.39 45.8143 63.55 44.6443 63.55C38.3243 63.53 32.0143 63.54 25.6943 63.54L25.6743 63.53ZM28.7743 30.82C31.7443 30.33 35.1143 28.75 35.8543 24.93C36.1143 23.57 36.4743 22.36 37.9843 21.65C39.0943 21.12 39.1743 19.69 38.3643 18.86C37.3143 17.78 37.2343 16.78 37.5543 15.44C37.9343 13.87 36.7543 12.35 35.4043 12.7C32.4343 13.46 29.9643 12.45 27.6543 10.8C26.5243 9.98998 25.5943 9.68999 24.5243 10.84C24.0743 11.32 23.4043 11.47 22.7143 11.53C19.9643 11.75 19.2043 12.91 19.9643 15.66C20.2943 16.84 20.3343 17.87 19.1543 18.68C18.4243 19.18 18.4743 21.34 19.2643 21.58C21.1843 22.16 21.2743 23.74 21.6443 25.23C22.3943 28.22 25.7343 30.83 28.7643 30.81L28.7743 30.82ZM28.7643 62.02C30.5943 58.23 32.2543 54.83 33.8743 51.43C34.2243 50.7 34.1143 49.88 34.0343 49.11C33.5843 44.47 33.0743 39.83 32.6343 35.19C32.5443 34.23 32.2843 33.9 31.2943 34.21C29.7243 34.71 28.1143 34.87 26.5243 34.27C25.1943 33.76 24.9343 34.31 24.8343 35.58C24.6043 38.56 24.0743 41.51 23.8843 44.49C23.7343 46.75 22.8643 49.07 23.6143 51.27C24.8543 54.9 26.8243 58.22 28.7543 62.02H28.7643ZM41.8543 53.8C41.0843 53.8 40.3043 53.79 39.5343 53.8C38.8743 53.81 38.3243 54.01 38.3343 54.8C38.3443 55.47 38.8343 55.71 39.4243 55.72C41.0343 55.74 42.6443 55.74 44.2543 55.72C44.8943 55.72 45.2443 55.4 45.2343 54.72C45.2143 54.02 44.7943 53.8 44.1843 53.79C43.4143 53.79 42.6343 53.79 41.8643 53.79L41.8543 53.8Z" fill="#ffffff"/>
<path d="M34.3443 68.2301C24.2943 68.2301 14.2443 68.2301 4.1943 68.2301C3.6543 68.2301 3.11431 68.2301 2.57431 68.2101C1.33431 68.1801 0.614293 67.4701 0.654293 66.3001C0.694293 65.1301 1.55432 64.7601 2.68432 64.7701C9.54432 64.7901 16.4043 64.7701 23.2643 64.7701C30.5443 64.7701 37.8343 64.7301 45.1143 64.8001C46.8543 64.8201 47.4143 64.2101 47.4743 62.5101C47.6043 58.8701 49.3743 56.4801 52.6843 54.5901C54.9043 53.3201 56.0543 53.3301 58.1343 54.6201C60.9743 56.4001 63.0843 58.3101 63.1943 61.8701C63.2743 64.4701 63.5843 64.7401 66.1443 64.7601C67.3543 64.7601 68.4943 64.9901 68.4043 66.4001C68.3243 67.7101 67.3143 68.2401 65.9543 68.2401C55.4243 68.2101 44.8943 68.2301 34.3543 68.2301H34.3443ZM55.4643 61.5201C56.7243 61.5201 57.9843 61.5201 59.2543 61.5201C60.3443 61.5201 60.4543 61.0301 60.0443 60.1501C59.1443 58.2301 57.6043 57.1301 55.5343 57.0901C53.4543 57.0501 51.9043 58.2101 50.8643 59.9801C50.2343 61.0601 50.6943 61.5401 51.8543 61.5201C53.0543 61.5101 54.2543 61.5201 55.4643 61.5201Z" fill="#ffffff"/>
<path d="M24.7843 51.4599C25.2843 49.6399 25.7343 47.8399 26.2943 46.0799C26.7543 44.6499 26.8243 43.3799 26.0743 41.9599C25.0643 40.0399 26.2943 37.8499 28.4343 37.4099C29.6543 37.1599 32.4343 39.7599 31.8343 40.7099C30.0543 43.5399 30.9843 46.2599 31.9543 48.9499C32.6343 50.8399 32.5843 52.4799 31.5243 54.2199C30.6843 55.5899 30.1443 57.1399 29.4343 58.5899C29.1843 59.0899 28.7943 59.9399 28.2343 58.9099C27.0043 56.6499 25.7243 54.4099 24.8843 51.9599C24.8243 51.7899 24.8043 51.6099 24.7743 51.4599H24.7843Z" fill="#ffffff"/>
</svg>
