<svg width="83" height="62" viewBox="0 0 83 62" fill="none" xmlns="http://www.w3.org/2000/svg">
<path d="M17.4177 35.1323C21.0877 35.1323 24.7577 35.0823 28.4277 35.1323C32.2477 35.1923 33.8977 36.8623 33.9777 40.6423C34.0277 42.9623 34.0477 45.2823 33.9777 47.5923C33.9277 49.2223 34.5377 49.8823 36.2077 49.8423C39.1977 49.7623 42.2077 49.7523 45.1977 49.8423C46.7277 49.8923 47.6577 49.3223 48.5077 48.0623C52.9377 41.4823 57.4977 34.9923 61.8977 28.4023C62.9577 26.8123 63.8077 26.5023 65.4577 27.6223C69.4077 30.3123 73.7077 32.5023 77.0877 35.9923C78.2077 37.1523 79.1077 38.4223 79.2877 40.0523C79.5277 42.1023 78.7277 42.7723 76.7577 42.2423C70.8177 40.6423 65.6277 43.0223 63.3777 48.3023C62.8277 49.5823 62.7277 50.9223 62.7777 52.2623C62.8377 53.7923 62.2177 54.4223 60.6777 54.4123C49.9677 54.3823 39.2477 54.3823 28.5377 54.4123C26.8777 54.4123 26.3777 53.7523 26.3177 52.1323C26.0977 46.1023 22.1677 42.2423 16.4077 42.2423C10.7377 42.2423 6.42767 46.4923 6.21767 52.3123C6.17767 53.2923 6.41767 54.4223 4.88767 54.3123C3.37767 54.2023 2.10767 53.5423 1.51767 52.0823C1.24767 51.3923 2.00767 51.2923 2.49767 51.1823C4.31767 50.7823 4.17767 49.3623 4.19767 48.0023C4.22767 46.5823 3.61768 45.7123 2.17768 45.5423C1.41768 45.4523 0.867667 45.1323 0.807667 44.3323C0.647667 42.1723 0.427671 39.9623 1.21767 37.8923C2.00767 35.8023 3.87767 35.1523 5.94767 35.1223C9.76767 35.0723 13.5877 35.1123 17.4077 35.1023L17.4177 35.1323Z" fill="#574132"/>
<path d="M36.3777 0.0222119C42.5177 0.0222119 48.6677 0.0222119 54.8077 0.0222119C55.4777 0.0222119 56.1677 -0.00778081 56.8277 0.0922192C57.9777 0.272219 58.7977 0.892218 58.8677 2.12222C58.9277 3.36222 58.1877 4.0822 57.0177 4.2922C56.1377 4.4522 55.2377 4.5122 54.3377 4.5122C42.2777 4.5222 30.2177 4.5222 18.1577 4.5122C17.2677 4.5122 16.3577 4.45221 15.4777 4.30221C14.3277 4.11221 13.4877 3.46221 13.5277 2.21221C13.5777 0.902214 14.4477 0.21222 15.7077 0.0622204C16.3777 -0.0177796 17.0577 0.00222285 17.7277 0.00222285C23.9477 0.00222285 30.1677 0.00222285 36.3777 0.00222285V0.0222119Z" fill="#574132"/>
<path d="M82.6977 52.2922C82.6977 57.6922 78.6077 61.7122 73.1477 61.7022C68.0177 61.6922 63.6477 57.4122 63.6077 52.3722C63.5677 47.0622 68.0077 42.5922 73.2877 42.6522C78.6177 42.7022 82.7077 46.9022 82.6977 52.2922ZM79.4377 52.2022C79.4377 48.5122 76.9177 45.9322 73.2977 45.9222C69.7877 45.9222 66.9577 48.6422 66.9177 52.0922C66.8677 55.7722 69.5477 58.4522 73.2577 58.4322C76.9277 58.4122 79.4277 55.8922 79.4377 52.2022Z" fill="#574132"/>
<path d="M16.4977 61.7022C11.0277 61.7322 6.90766 57.7322 6.87766 52.3422C6.83766 47.0622 11.0677 42.7122 16.2977 42.6522C21.5177 42.5822 25.9277 46.9022 25.9677 52.1222C26.0077 57.4322 21.8177 61.6822 16.5077 61.7122L16.4977 61.7022ZM22.6977 52.2522C22.6977 48.6822 20.0177 45.9522 16.4877 45.9322C12.7877 45.9022 10.1377 48.5722 10.1677 52.3022C10.1977 55.9622 12.7377 58.4422 16.4477 58.4322C20.1277 58.4322 22.7077 55.8722 22.6977 52.2622V52.2522Z" fill="#574132"/>
<path d="M20.0576 19.9121C20.0576 24.0921 20.0677 28.2621 20.0477 32.4421C20.0477 33.4621 20.1677 34.6921 18.5777 34.6721C16.9577 34.6521 17.1877 33.3921 17.1877 32.3921C17.1677 24.0421 17.1677 15.6921 17.1877 7.33212C17.1877 6.35212 16.9077 5.05214 18.5177 5.00214C20.2777 4.94214 20.0377 6.32212 20.0477 7.39212C20.0777 11.5721 20.0576 15.7421 20.0576 19.9221V19.9121Z" fill="#574132"/>
<path d="M62.5077 26.0622C62.3177 27.0822 61.8977 28.1422 60.9577 28.3722C60.0277 28.6022 60.0077 27.4422 59.7677 26.8022C57.3577 20.2922 54.9677 13.7822 52.6277 7.25221C52.3677 6.53221 51.4977 5.4822 52.9077 5.0222C54.0077 4.6722 54.9177 5.03219 55.3777 6.29219C57.6377 12.5322 59.9577 18.7622 62.2377 24.9922C62.3677 25.3422 62.4177 25.7122 62.5077 26.0622Z" fill="#574132"/>
<path d="M26.1677 34.7522C21.0077 34.6922 21.3677 35.4122 21.3577 29.9322C21.3577 27.0922 21.3477 24.2622 21.3677 21.4222C21.3677 20.7822 21.2077 19.9622 22.0577 19.7122C22.7577 19.5122 23.3677 19.9122 23.8777 20.3822C24.6977 21.1422 24.9677 22.1422 24.9777 23.2222C24.9977 25.1622 25.0477 27.1022 24.9777 29.0422C24.9177 30.6522 25.3377 31.6722 27.1977 31.5622C27.6377 31.5322 28.0977 31.6422 28.5177 31.7722C29.5677 32.1022 30.6577 32.6822 30.5477 33.8422C30.4177 35.2922 29.0277 34.5922 28.1777 34.7222C27.5177 34.8222 26.8377 34.7422 26.1577 34.7422L26.1677 34.7522Z" fill="#574132"/>
<path d="M58.2177 32.4123C58.0177 33.5123 57.4377 33.8623 56.4677 33.3523C55.2877 32.7223 54.0777 32.1123 52.9777 31.3623C51.6677 30.4623 50.8177 30.4823 49.9777 32.0123C49.4077 33.0623 48.9477 35.2523 47.3777 34.3523C45.5477 33.3023 47.5477 31.8923 48.0777 30.8023C49.2277 28.4723 50.6277 26.2623 51.9677 24.0223C52.3777 23.3323 52.8977 22.4523 53.8877 23.0323C54.8477 23.5923 54.3677 24.4423 54.0177 25.1923C52.4477 28.5423 52.4577 28.5323 55.8477 30.5323C56.7177 31.0423 57.7777 31.3623 58.2077 32.4223L58.2177 32.4123Z" fill="#574132"/>
<path d="M73.2677 49.5723C74.8477 49.7923 75.7877 50.6823 75.7977 52.2323C75.8077 53.8523 74.7377 54.7523 73.2177 54.7423C71.6777 54.7423 70.6777 53.7323 70.6877 52.1623C70.6977 50.5723 71.7977 49.8223 73.2577 49.5723H73.2677Z" fill="#574132"/>
<path d="M16.2577 54.7922C14.8577 54.6122 13.8477 53.7923 13.8377 52.2223C13.8277 50.6723 14.7677 49.7322 16.3177 49.5822C17.6377 49.4622 19.0877 50.9523 19.0477 52.2823C19.0177 53.6123 17.7477 54.8023 16.2577 54.7823V54.7922Z" fill="#574132"/>
</svg>
