<svg width="82" height="69" viewBox="0 0 82 69" fill="none" xmlns="http://www.w3.org/2000/svg">
<path d="M81.0223 28.6501C80.4223 29.5201 79.8523 30.5501 78.8523 30.8401C76.7223 31.4501 76.5023 32.9101 76.5223 34.7901C76.5923 40.8501 76.5623 46.9101 76.5423 52.9801C76.5423 56.3801 75.7923 59.4001 72.2023 60.8401C71.1323 61.2701 71.2723 62.2401 71.2223 63.1401C71.0423 66.9401 69.7723 68.1701 65.9423 68.1701C49.2323 68.1801 32.5223 68.1801 15.8123 68.1701C11.7223 68.1701 10.5123 67.0101 10.2523 62.8801C10.1823 61.8101 9.92227 61.0701 8.87227 60.5701C6.19227 59.3101 5.21227 57.0201 5.22227 54.1601C5.24227 47.5701 5.19227 40.9901 5.25227 34.4001C5.26227 32.7601 5.06227 31.6401 3.19227 31.0401C1.04227 30.3501 0.182269 28.4801 0.332269 26.2201C0.482269 23.9401 1.70227 22.5001 3.85227 21.8201C5.01227 21.4501 6.20227 21.4601 7.40227 21.4601C11.9923 21.4601 11.5323 21.7201 11.5923 17.1601C11.6223 15.0701 11.3823 12.9801 11.8723 10.9001C12.6623 7.54013 15.2823 5.65013 18.5823 6.11013C21.6523 6.54013 23.8523 9.24013 23.7323 12.4701C23.6923 13.5101 23.4623 14.5401 22.2123 14.5701C20.9923 14.6001 20.9823 13.5401 20.8623 12.6301C20.6123 10.6901 19.8723 9.11013 17.6123 9.05013C15.8123 9.00013 14.5923 10.5001 14.4823 12.9801C14.3823 15.2201 14.4823 17.4701 14.4423 19.7101C14.4223 20.9501 15.0023 21.4701 16.2023 21.4601C17.9923 21.4501 19.7823 21.4301 21.5723 21.5101C22.6823 21.5601 24.0523 21.6501 23.9623 23.2101C23.8923 24.5901 22.6323 24.6401 21.5723 24.6401C16.6523 24.6601 11.7223 24.6401 6.80227 24.6601C6.13227 24.6601 5.45227 24.6601 4.79227 24.7701C3.90227 24.9301 3.32227 25.5001 3.28227 26.4501C3.24227 27.3901 3.75227 28.0401 4.60227 28.3101C5.15227 28.4901 5.77227 28.5301 6.36227 28.5301C20.0123 28.5401 33.6623 28.5301 47.3123 28.5601C48.9123 28.5601 49.6123 28.1001 49.5523 26.3901C49.5023 24.7401 48.5523 24.6401 47.3323 24.6401C42.4823 24.6601 37.6323 24.6401 32.7823 24.6401C31.6623 24.6401 30.5423 24.6901 29.4223 24.6301C28.0923 24.5501 26.0823 25.0601 26.1423 23.0101C26.2023 21.0301 28.2123 21.4901 29.5423 21.4701C35.4323 21.4301 41.3323 21.4501 47.2223 21.4501C48.2823 21.4501 49.3023 21.4701 49.9223 20.3201C50.7723 18.7401 52.2623 18.3301 53.9123 18.3201C57.4923 18.3001 61.0723 18.3001 64.6523 18.3201C66.3823 18.3201 67.9223 18.7901 68.8123 20.4401C69.2823 21.3101 70.0323 21.4501 70.8923 21.4401C72.0823 21.4401 73.2823 21.5101 74.4723 21.4401C77.1023 21.2701 79.3323 22.0101 80.9923 24.1401V28.6301L81.0223 28.6501ZM40.6323 65.0401C48.9123 65.0401 57.1923 65.0401 65.4823 65.0401C66.8623 65.0401 68.2923 65.1101 68.3223 63.1001C68.3623 60.9801 66.7823 61.4601 65.6123 61.4501C57.3323 61.4201 49.0523 61.4401 40.7623 61.4201C39.8723 61.4201 38.9723 61.3501 38.1023 61.1601C37.3323 60.9901 36.7323 60.4701 36.8023 59.5801C36.8723 58.6901 37.5023 58.3001 38.3323 58.2401C39.0023 58.1901 39.6723 58.1901 40.3423 58.1901C49.8923 58.1901 59.4423 58.1901 68.9923 58.1801C71.8923 58.1801 73.2523 57.1801 73.2823 54.7701C73.3723 47.7301 73.3123 40.7001 73.3423 33.6601C73.3423 32.3201 72.7623 31.8001 71.4523 31.7801C70.0423 31.7601 69.3923 32.2901 69.4223 33.7501C69.4623 36.1401 69.4223 38.5401 69.4223 40.9401C69.4223 42.1801 69.0823 43.2901 67.6623 43.3501C65.5023 43.4501 63.3423 43.4101 61.1823 43.3501C60.3823 43.3301 59.7123 42.8901 59.6923 41.9801C59.6723 41.0801 60.3123 40.6101 61.1023 40.5101C62.2023 40.3701 63.3323 40.3001 64.4423 40.3401C65.9523 40.3901 66.5923 39.8201 66.5723 38.2401C66.5123 33.4501 66.5223 28.6601 66.5623 23.8701C66.5723 22.1701 65.8623 21.4101 64.1523 21.4401C61.0223 21.4901 57.8823 21.5101 54.7523 21.4401C53.0023 21.4001 52.3723 22.0901 52.4023 23.8301C52.4823 27.8001 52.4023 31.7701 52.4323 35.7301C52.4423 37.0701 52.0123 38.5501 52.7223 39.7001C53.4423 40.8701 54.9523 40.1301 56.0623 40.4601C56.9123 40.7101 57.6623 41.0301 57.5923 42.0701C57.5223 42.9801 56.8123 43.3301 56.0223 43.3701C54.5323 43.4401 53.0423 43.4301 51.5523 43.4301C50.1723 43.4301 49.5323 42.7201 49.5523 41.3201C49.5823 38.9201 49.4723 36.5301 49.5723 34.1301C49.6423 32.3901 49.0223 31.7401 47.2623 31.7501C35.0223 31.8001 22.7923 31.8001 10.5523 31.7501C8.68227 31.7501 8.09227 32.4201 8.11227 34.2501C8.19227 40.6101 8.13227 46.9801 8.15227 53.3401C8.16227 56.9801 9.35227 58.1701 13.0023 58.1801C19.0423 58.2001 25.0923 58.1401 31.1323 58.2201C32.4623 58.2401 34.7123 57.4601 34.7023 59.6601C34.6923 61.7901 32.4523 61.3801 30.9623 61.4001C25.8123 61.4501 20.6623 61.4001 15.5123 61.4401C13.7123 61.4501 12.8623 62.8001 13.6223 64.2201C14.1623 65.2301 15.1523 65.0101 16.0123 65.0101C24.2223 65.0301 32.4323 65.0201 40.6323 65.0201V65.0401ZM73.7123 24.7101C73.7123 24.7101 73.7123 24.7101 73.7123 24.7201C72.6723 24.7201 71.6323 24.6501 70.6123 24.7401C69.3423 24.8501 69.4623 25.8801 69.4523 26.7601C69.4423 27.6301 69.5623 28.4801 70.6723 28.5001C72.5923 28.5301 74.5223 28.5601 76.4423 28.4401C77.4923 28.3801 78.2523 27.7501 78.2123 26.5501C78.1723 25.3901 77.4723 24.8001 76.3823 24.7201C75.5023 24.6601 74.6123 24.7101 73.7223 24.7101H73.7123Z" fill="#ffffff"/>
<path d="M42.5723 0.000235056C44.0423 -0.0197649 44.7323 1.24024 43.8423 2.36024C42.7823 3.69024 43.1823 4.50024 44.1523 5.61024C46.1623 7.90024 45.8523 10.9002 43.5923 12.4002C42.8223 12.9102 41.9623 13.3302 41.1823 12.4802C40.4623 11.7002 40.8523 10.8902 41.5023 10.3302C42.9423 9.07024 42.2823 8.08024 41.3123 6.94024C39.3223 4.58024 39.3823 2.34024 41.4023 0.690238C41.7923 0.370238 42.2723 0.170237 42.5623 0.0102372L42.5723 0.000235056Z" fill="#ffffff"/>
<path d="M52.7723 1.98022C53.5323 1.98022 53.9923 2.15022 54.3023 2.64022C54.6823 3.24022 54.5723 3.86022 54.0923 4.26022C52.7223 5.41022 53.2623 6.26022 54.2423 7.38022C56.3623 9.80022 55.9823 13.1102 53.5723 14.5502C52.8923 14.9602 52.1723 15.2002 51.5423 14.5402C50.8723 13.8402 50.8323 12.9602 51.5723 12.3702C53.4323 10.8602 52.3823 9.74022 51.2623 8.50022C49.5523 6.59022 49.7123 4.11022 51.6023 2.64022C52.0023 2.33022 52.4923 2.14022 52.7823 1.98022H52.7723Z" fill="#ffffff"/>
<path d="M32.2723 10.7602C32.2023 9.85016 31.4923 9.37015 30.9723 8.74015C29.2823 6.70015 29.5023 3.72016 31.4223 2.41016C32.0823 1.96016 32.7723 1.69015 33.4623 2.27015C34.2223 2.91015 34.2923 3.75016 33.6323 4.43016C32.3923 5.72016 33.0523 6.57015 34.0023 7.63015C35.8723 9.72015 35.6923 12.5902 33.7023 14.1702C32.9223 14.7902 32.0023 15.3402 31.1023 14.5002C30.1423 13.6002 30.6723 12.7602 31.4823 12.0502C31.8823 11.7002 32.2323 11.3302 32.2723 10.7502V10.7602Z" fill="#ffffff"/>
</svg>
