<svg width="63" height="69" viewBox="0 0 63 69" fill="none" xmlns="http://www.w3.org/2000/svg">
<path d="M21.2561 25.7573C21.2561 20.8573 21.2261 15.9673 21.2561 11.0673C21.3161 4.20728 26.7661 -0.582718 33.5861 0.0572818C35.2061 0.207282 35.2761 1.13728 35.2961 2.32728C35.3161 3.53728 35.2061 4.57728 33.6161 4.62728C32.5061 4.65728 31.3561 4.62728 30.2861 4.88728C27.2161 5.61728 24.8561 9.69728 25.5261 12.7973C25.7361 13.7673 26.3461 13.9373 27.1461 13.9373C31.1661 13.9373 35.1861 13.9173 39.2061 13.9573C40.9761 13.9773 40.9961 12.8373 41.0161 11.5673C41.0761 7.62728 42.5161 4.36728 45.7761 1.97728C48.2161 0.187282 50.9661 -0.0827182 53.8561 0.0972818C55.2461 0.187282 55.2861 1.15728 55.3061 2.14728C55.3161 3.28728 55.3261 4.33728 53.7461 4.61728C45.9961 5.99728 45.5361 6.58728 45.5361 14.5373C45.5361 22.5473 45.5761 30.5573 45.5061 38.5673C45.4961 40.1573 45.8261 40.8973 47.6061 40.6573C49.7361 40.3673 51.5161 41.4373 53.1961 42.5573C55.0561 43.8073 56.8661 44.0973 58.7761 42.7273C60.1461 41.7473 61.0861 41.9573 61.9761 43.5273C62.8461 45.0573 62.5661 45.8473 61.1061 46.7273C57.8661 48.6873 54.6361 49.0473 51.4961 46.7673C49.0561 45.0073 46.8361 44.8873 44.3561 46.6573C40.9661 49.0873 37.4961 48.7773 34.1961 46.4173C32.1761 44.9773 30.3061 44.9073 28.2661 46.3873C24.8061 48.8973 21.2061 49.0173 17.7061 46.4873C15.4161 44.8373 13.3661 45.0573 11.1661 46.6273C7.7761 49.0473 4.3961 48.7573 0.986101 46.4873C-0.453899 45.5273 -0.0638986 44.6673 0.596101 43.5173C1.2861 42.3173 2.0161 41.5273 3.3761 42.5673C5.4061 44.1173 7.3461 43.8373 9.3261 42.4473C12.6661 40.1173 16.0761 39.8873 19.4961 42.2673C21.1861 43.4473 21.2661 42.4473 21.2561 41.0873C21.2361 35.9673 21.2561 30.8473 21.2561 25.7373V25.7573ZM33.1961 28.1473C35.2061 28.1473 37.2061 28.1273 39.2161 28.1473C40.4161 28.1673 41.0161 27.6673 41.0061 26.4373C40.9861 24.3673 41.0061 22.2873 41.0061 20.2173C41.0061 19.1473 40.5561 18.5573 39.4161 18.5573C35.3261 18.5573 31.2361 18.5573 27.1461 18.5573C26.0361 18.5573 25.5061 19.0173 25.5161 20.1473C25.5361 22.2173 25.5561 24.2973 25.5061 26.3673C25.4661 27.7373 26.1161 28.1973 27.4061 28.1573C29.3361 28.1073 31.2761 28.1473 33.2061 28.1373L33.1961 28.1473ZM33.2161 32.7573C31.3561 32.7573 29.5061 32.8273 27.6561 32.7373C25.9761 32.6573 25.4161 33.3773 25.4961 34.9773C25.5861 36.8173 25.5861 38.6773 25.4961 40.5173C25.4061 42.1873 25.7661 42.6973 27.3861 41.7173C30.1361 40.0473 32.8961 40.3373 35.5861 41.9673C36.4061 42.4673 37.2161 43.0273 38.0961 43.3973C40.0061 44.2073 40.9461 43.6173 40.9961 41.5873C41.0561 39.2973 40.9761 37.0073 41.0161 34.7173C41.0461 33.2873 40.3961 32.7273 38.9961 32.7573C37.0661 32.8073 35.1361 32.7673 33.2061 32.7573H33.2161Z" fill="#574132"/>
<path d="M55.9661 58.3674C54.1161 58.2874 52.3261 57.5374 50.7561 56.3674C48.8261 54.9274 46.9461 54.8474 45.0161 56.2774C41.2961 59.0374 37.5861 58.9774 33.9161 56.2274C32.1161 54.8774 30.3261 54.9174 28.5661 56.1974C24.7861 58.9374 21.0461 59.0474 17.2661 56.1974C15.3061 54.7174 13.4861 55.1574 11.5161 56.4274C7.49612 59.0274 4.40612 58.8774 0.966119 56.4874C-0.633881 55.3774 0.156118 54.4174 0.736118 53.2874C1.37612 52.0374 2.20612 51.6774 3.38612 52.6174C5.47612 54.2774 7.47612 53.9074 9.48612 52.4174C12.8361 49.9374 16.2661 49.9474 19.6061 52.3874C21.8361 54.0174 23.9261 54.0574 26.1461 52.4274C29.5861 49.9074 33.0761 49.9774 36.4561 52.5074C38.5561 54.0774 40.5361 54.0074 42.5961 52.5074C46.1861 49.8974 49.7561 49.9074 53.2861 52.6274C55.2061 54.1174 57.1061 54.0374 59.0061 52.6074C60.2461 51.6774 61.0461 51.8974 61.8161 53.2874C62.5461 54.6074 63.0661 55.5674 61.3361 56.5474C59.6861 57.4874 58.0561 58.2874 55.9761 58.3574L55.9661 58.3674Z" fill="#574132"/>
<path d="M56.0261 67.9573C54.0961 68.2173 52.4561 67.5873 50.9661 66.4973C48.9261 65.0073 46.9761 64.8873 44.8061 66.3873C41.3161 68.8073 37.6461 68.7173 34.1661 66.3873C32.0761 64.9873 30.2861 65.0173 28.2061 66.3873C24.7961 68.6273 21.1961 68.8573 17.7661 66.4973C15.4561 64.8973 13.4761 65.0773 11.2061 66.5773C7.92612 68.7473 3.86612 68.4973 0.946123 66.4473C-0.803877 65.2273 0.306123 64.2273 0.856123 63.0673C1.50612 61.7073 2.36612 61.8973 3.35612 62.6173C5.37612 64.0973 7.31612 63.8773 9.31612 62.4773C12.8161 60.0173 16.3761 59.9573 19.8661 62.5373C21.7761 63.9573 23.6561 64.0373 25.6161 62.6473C29.3261 60.0173 33.0561 59.9273 36.7661 62.6673C38.6161 64.0373 40.4661 63.9773 42.3261 62.6273C45.9561 60.0073 49.6161 59.8773 53.2561 62.5973C55.1961 64.0473 57.0961 63.9673 59.0161 62.5973C60.0961 61.8273 60.9961 61.6773 61.6861 63.1273C62.2561 64.3173 63.2561 65.3573 61.4161 66.4573C59.6961 67.4873 57.9961 68.2673 55.9961 67.9573H56.0261Z" fill="#574132"/>
</svg>
