<svg width="66" height="58" viewBox="0 0 66 58" fill="none" xmlns="http://www.w3.org/2000/svg">
<path d="M24.7429 19.8601C22.9829 18.7101 21.7429 17.9201 20.5129 17.1101C19.1129 16.1901 17.9729 14.9701 17.2429 13.5101C15.0729 9.18008 14.4829 7.11008 20.5229 6.89008C21.7229 6.85008 21.8829 6.38008 21.9329 5.25008C22.2129 -1.20992 23.0929 -0.809918 27.9029 1.68008C29.1829 2.34008 30.0629 2.35008 30.9829 1.22008C32.2729 -0.349917 33.7029 -0.289923 34.8629 1.30008C35.9429 2.77008 36.8629 2.44008 38.1829 1.62008C42.3729 -0.989923 43.7029 -0.329924 44.1629 4.69008C44.3129 6.28008 44.8729 6.81008 46.3629 7.10008C49.1229 7.63008 49.5529 8.49008 48.7029 11.1801C48.0129 13.3601 46.7529 15.1801 44.9829 16.6301C43.6129 17.7401 42.1729 18.7501 40.6329 19.8801C45.1329 19.8801 49.6329 19.8801 54.1329 19.8801C59.4329 19.8801 62.9329 21.6701 64.1929 25.6301C65.6329 30.1701 65.5329 34.6401 61.4829 38.0801C60.6729 38.7701 60.6929 39.1701 61.5229 39.7601C65.4329 42.5201 65.4629 48.6801 64.2329 51.7901C62.7429 55.5601 59.4129 57.5101 54.5329 57.5101C40.1729 57.5101 25.8129 57.4701 11.4529 57.5401C6.9129 57.5601 3.45291 55.9701 1.58291 51.7101C-0.217093 47.6301 0.762902 43.1701 4.2029 39.8901C5.4029 38.7501 4.59291 38.3801 3.86291 37.6901C-1.39709 32.6901 0.232888 23.2301 6.78289 20.5001C7.98289 20.0001 9.21291 19.8701 10.4929 19.8801C15.0229 19.8901 19.5629 19.8801 24.7329 19.8801L24.7429 19.8601ZM32.9329 22.2601C32.5629 22.2601 32.1929 22.2601 31.8129 22.2601C24.6729 22.2601 17.5329 22.2001 10.3929 22.2901C5.8429 22.3501 3.2429 25.3201 3.2329 30.1801C3.2329 34.5701 5.89289 37.6301 10.0629 37.6501C22.8529 37.7201 35.6429 37.7001 48.4329 37.6801C50.6729 37.6801 52.2129 36.3101 52.1829 34.4201C52.1429 31.9701 50.2229 32.1501 48.6329 32.1101C44.9129 32.0301 41.1929 32.0901 37.4829 32.0601C36.7329 32.0601 35.8529 32.0001 35.8329 30.9901C35.8129 30.0301 36.6329 29.7901 37.4029 29.7901C41.7829 29.7901 46.1829 29.6401 50.5529 29.9301C53.6929 30.1401 55.0629 32.3401 54.5429 35.4201C54.1629 37.6901 54.4829 38.0001 56.7729 37.5901C60.7229 36.8901 62.7929 33.6301 62.4529 28.6401C62.1929 24.9201 59.4329 22.3201 55.4429 22.2801C47.9329 22.2201 40.4229 22.2601 32.9129 22.2601H32.9329ZM32.9029 40.0901C25.3129 40.0901 17.7229 40.0601 10.1429 40.1001C6.2329 40.1201 3.43289 42.9301 3.25289 46.8401C3.01289 52.0801 5.8029 55.0401 11.2029 55.0601C23.4729 55.1101 35.7529 55.0801 48.0229 55.0701C48.6129 55.0701 49.2529 55.1001 49.7929 54.9101C51.4429 54.3201 52.3829 53.1101 52.1729 51.3301C51.9729 49.6501 50.5529 49.6101 49.2829 49.5201C48.4729 49.4601 47.6429 49.5001 46.8329 49.5001C35.6729 49.5001 24.5129 49.4801 13.3529 49.5001C11.2529 49.5001 9.9029 48.5901 9.5129 46.5401C9.1629 44.7201 9.65289 43.1201 11.4429 42.2001C12.3229 41.7501 13.3729 41.3601 13.9829 42.5001C14.5229 43.5201 13.6329 43.9001 12.8429 44.2401C12.0729 44.5801 11.7129 45.2001 11.9329 46.0501C12.1329 46.8301 12.7529 47.0601 13.4729 47.0801C14.1429 47.1001 14.8129 47.1101 15.4829 47.1101C26.7129 47.1101 37.9529 47.0901 49.1829 47.1301C53.6129 47.1501 55.4629 49.4001 54.3529 53.4901C53.9329 55.0501 54.5529 55.1001 55.7129 55.0501C59.8029 54.8701 62.5129 51.8901 62.5129 47.5201C62.5129 43.0501 59.9029 40.1301 55.6729 40.1001C48.0829 40.0401 40.4929 40.0801 32.9129 40.0801L32.9029 40.0901ZM43.3929 9.24008C39.8529 9.17008 37.1029 10.6901 34.6429 12.8601C33.6629 13.7201 33.1729 17.2601 33.7529 18.3101C34.1229 18.9701 34.7129 18.9901 35.2929 18.8101C39.0629 17.7001 42.5629 16.1201 45.0529 12.9301C45.7229 12.0801 46.6729 11.0901 46.1129 9.95008C45.5629 8.83008 44.2429 9.39008 43.3929 9.23008V9.24008ZM21.7629 9.22008C20.7329 9.42008 19.2729 8.76008 18.7229 9.93008C18.1229 11.2201 19.2629 12.2801 20.0229 13.2501C21.8229 15.5501 24.3129 16.8801 26.9629 17.9201C28.1729 18.4001 29.6329 19.4401 30.7029 18.5601C31.8129 17.6401 31.1229 15.9101 31.1329 14.5301C31.1329 13.7201 30.5529 13.1801 30.0029 12.6901C27.6529 10.6101 24.9829 9.29008 21.7629 9.21008V9.22008ZM31.4429 10.6201C31.7329 7.51009 28.1329 3.27008 25.4029 3.13008C24.9029 3.11008 24.4429 3.22008 24.3729 3.73008C24.1929 5.12008 23.8829 6.68008 25.6229 7.34008C27.6529 8.10008 29.4529 9.22007 31.4429 10.6101V10.6201ZM34.4829 9.51008C36.7629 8.49008 38.6029 7.60008 40.5429 6.94008C42.0329 6.44008 41.6029 5.00008 41.4029 3.86008C41.2629 3.07008 40.6229 3.04008 40.0129 3.34008C37.4929 4.58008 35.5229 6.31008 34.4829 9.51008Z" fill="#574132"/>
<path d="M18.5629 32.0802C16.5529 32.0802 14.5429 32.1802 12.5429 32.0502C10.6429 31.9302 9.4929 30.4602 9.3929 28.3702C9.2929 26.2102 10.4129 24.5202 12.2229 24.1202C12.9129 23.9702 13.6029 23.9102 14.0029 24.6202C14.4229 25.3602 14.0529 25.9402 13.3729 26.2602C12.2329 26.7902 11.8429 27.6602 12.2129 28.8002C12.5829 29.9302 13.6329 29.7102 14.4829 29.7202C17.3829 29.7502 20.2729 29.7202 23.1729 29.7402C23.7629 29.7402 24.3629 29.7602 24.9529 29.8502C25.5729 29.9402 26.1529 30.2302 26.1629 30.9402C26.1629 31.7902 25.5329 32.0702 24.8029 32.0802C22.7229 32.1002 20.6429 32.0802 18.5629 32.0802Z" fill="#574132"/>
</svg>
