<svg width="69" height="67" viewBox="0 0 69 67" fill="none" xmlns="http://www.w3.org/2000/svg">
<path d="M32.4652 59.3002C28.8152 59.3002 25.1452 59.5002 21.5052 59.2402C18.3552 59.0102 15.7352 59.9102 13.2652 61.7002C11.6552 62.8702 9.85518 63.8002 8.32518 65.0602C6.40518 66.6502 4.26518 66.9102 1.93518 66.7402C1.16518 66.6802 0.365169 66.6902 0.095169 65.7602C-0.174831 64.7902 0.13517 63.9902 0.95517 63.4202C1.85517 62.7902 2.77518 62.1902 3.69518 61.5802C5.41518 60.4402 7.29518 59.4902 8.82518 58.1402C13.4952 54.0102 18.8252 52.6302 24.9752 53.2002C29.0052 53.5802 33.1052 53.1702 37.1652 53.3102C39.1652 53.3802 39.7852 52.7302 39.7552 50.7402C39.7252 48.8702 39.3752 47.8202 37.2552 48.1102C36.5852 48.2002 35.8652 48.1702 35.1952 48.0602C34.2952 47.9102 33.2552 47.5202 33.2952 46.5302C33.3252 45.5702 34.3552 45.1802 35.2652 45.0502C35.8752 44.9602 36.5052 45.0002 37.1252 45.0002C43.8752 45.0002 50.6352 44.9602 57.3852 45.0302C58.8052 45.0402 59.6052 44.5802 60.2952 43.3102C61.9352 40.3002 63.7352 37.3602 65.5552 34.4502C66.0852 33.6002 66.6552 32.1702 68.0352 33.0002C69.4052 33.8102 69.0052 35.1502 68.3352 36.2902C65.3052 41.4402 62.3152 46.6202 59.1452 51.6902C57.8552 53.7602 57.1152 55.8202 57.2852 58.2802C57.4252 60.2702 57.2852 62.2802 57.3152 64.2702C57.3452 66.0102 56.5052 66.7902 54.7852 66.7502C53.4752 66.7202 52.1652 66.7002 50.8552 66.7502C49.2852 66.8202 48.6052 65.9702 48.4252 64.5502C48.3652 64.0702 48.3852 63.5902 48.3852 63.1002C48.3652 60.5602 47.1185 59.2902 44.6452 59.2902C40.5752 59.2902 36.5152 59.2902 32.4452 59.2902L32.4652 59.3002ZM50.2852 48.1302C48.9152 48.1302 47.5452 48.1302 46.1652 48.1302C42.6452 48.1302 42.6152 48.2002 42.8152 51.6902C42.8852 52.8202 43.2852 53.3002 44.4252 53.2802C46.3452 53.2402 48.2952 53.0602 50.1852 53.3202C53.4652 53.7902 55.5652 52.6002 56.6252 49.4902C56.6452 49.4302 56.7052 49.3802 56.7452 49.3202C57.4052 48.4002 56.9952 48.1202 56.0552 48.1202C54.1352 48.1202 52.2152 48.1202 50.2952 48.1202L50.2852 48.1302Z" fill="#574132"/>
<path d="M15.3052 19.4203C15.3052 13.8503 19.3552 9.83032 24.9652 9.83032C30.2552 9.83032 34.8352 14.4403 35.0352 19.5403C35.2052 23.6603 29.6252 29.3303 24.9352 29.1503C19.5452 28.9303 15.2952 24.8403 15.3052 19.4203Z" fill="#574132"/>
<path d="M26.6652 3.79029C26.6652 4.34029 26.7252 4.89029 26.6552 5.43029C26.4952 6.60029 25.7452 7.33029 24.5852 7.27029C23.5352 7.21029 23.1452 6.38029 23.1652 5.36029C23.1852 4.27029 23.1652 3.17029 23.1752 2.08029C23.1952 0.920289 23.6552 0.0302895 24.9352 0.000289456C26.1752 -0.0197105 26.4652 1.00029 26.6352 1.95029C26.7452 2.54029 26.6552 3.18029 26.6552 3.79029H26.6652Z" fill="#574132"/>
<path d="M34.4752 27.3002C35.5352 27.1802 36.0152 27.6902 36.4952 28.1802C37.3652 29.0502 38.2652 29.9102 39.0752 30.8302C39.7052 31.5502 39.6252 32.3402 38.9652 33.0402C38.2352 33.8202 37.5252 33.6302 36.8352 32.9702C35.7952 31.9702 34.7852 30.9502 33.6952 30.0202C33.1452 29.5502 32.5352 29.1602 32.8852 28.3602C33.2252 27.6002 33.9852 27.3902 34.4752 27.3002Z" fill="#574132"/>
<path d="M23.1452 34.9402C23.2652 33.4602 22.7552 31.4202 25.0052 31.5102C26.9552 31.5902 26.6952 33.5202 26.6852 34.9102C26.6752 36.3302 27.2152 38.4002 25.0352 38.4702C22.6252 38.5502 23.3352 36.3502 23.1552 34.9502L23.1452 34.9402Z" fill="#574132"/>
<path d="M35.0152 11.3102C33.9952 11.1302 33.1552 10.9202 32.8552 10.0402C32.5752 9.22024 33.2852 8.89024 33.8252 8.44024C34.8152 7.60024 35.7152 6.65024 36.6652 5.76024C37.4052 5.08024 38.2452 4.85024 39.0352 5.61024C39.8452 6.39024 39.6152 7.27024 38.8752 7.95024C37.5952 9.13024 36.6552 10.7302 35.0252 11.3102H35.0152Z" fill="#574132"/>
<path d="M40.8652 20.8103C40.2452 20.8103 39.6252 20.8103 39.0152 20.8103C38.1152 20.7903 37.3252 20.5703 37.3352 19.4603C37.3352 18.5003 37.9252 17.8703 38.8252 17.7903C40.1852 17.6703 41.5652 17.7103 42.9352 17.7303C43.9352 17.7503 44.7752 18.2203 44.7652 19.2703C44.7652 20.3203 43.9252 20.7603 42.9152 20.8003C42.2252 20.8303 41.5452 20.8003 40.8552 20.8003L40.8652 20.8103Z" fill="#574132"/>
<path d="M12.3752 33.5504C11.7452 33.5804 11.3552 33.1904 11.0552 32.7304C10.6852 32.1704 10.6352 31.5004 11.0852 31.0104C12.1952 29.8104 13.3052 28.5804 14.5652 27.5604C15.4552 26.8404 16.6652 27.5904 16.7352 28.7404C16.7952 29.7704 13.4152 33.5004 12.3752 33.5404V33.5504Z" fill="#574132"/>
<path d="M12.3652 5.13037C13.4752 5.16037 16.7252 8.57037 16.7352 9.70037C16.7352 11.0604 15.5952 11.7904 14.5252 10.9404C13.2452 9.92037 12.0652 8.73037 11.0552 7.45037C10.2852 6.47037 11.1552 5.11037 12.3652 5.14037V5.13037Z" fill="#574132"/>
<path d="M9.69515 17.7202C10.6652 17.8502 12.7751 17.1702 12.8151 19.1702C12.8651 21.3802 10.6852 20.6802 9.29516 20.8102C8.61516 20.8702 7.92516 20.8302 7.23516 20.7902C6.31516 20.7302 5.56516 20.2902 5.51516 19.3502C5.46516 18.2702 6.26516 17.8102 7.26516 17.7402C7.94516 17.6902 8.63515 17.7402 9.69515 17.7402V17.7202Z" fill="#574132"/>
</svg>
