<svg width="73" height="69" viewBox="0 0 73 69" fill="none" xmlns="http://www.w3.org/2000/svg">
<path d="M59.9576 38.386C59.9676 41.586 60.0576 44.786 59.9776 47.986C59.9376 49.696 60.5076 50.506 62.2776 50.366C63.1676 50.296 64.0676 50.376 64.8976 50.766C66.6976 51.616 67.0276 53.506 65.4276 54.676C63.1276 56.356 63.8176 58.956 63.2276 61.146C63.0076 61.966 63.8276 62.226 64.5576 62.236C65.8176 62.256 67.0876 62.206 68.3476 62.296C70.0476 62.426 71.2076 63.366 71.2276 65.106C71.2476 66.796 70.2176 67.866 68.5076 68.106C67.7776 68.206 67.0276 68.186 66.2876 68.186C45.8676 68.186 25.4476 68.186 5.02761 68.186C4.13761 68.186 3.2276 68.206 2.3676 68.016C0.797602 67.666 -0.0923837 66.606 0.00761629 64.966C0.107616 63.416 1.06761 62.536 2.56761 62.346C3.51761 62.226 4.4976 62.276 5.4576 62.236C6.1076 62.206 6.64762 62.016 6.66762 61.236C6.67762 60.606 6.26761 60.376 5.71761 60.186C1.48761 58.736 1.4876 58.716 1.4876 54.236C1.4876 52.676 1.4376 51.106 1.5176 49.546C1.6376 47.366 3.02762 45.926 4.94762 45.856C6.85762 45.796 8.5176 47.386 8.6776 49.536C8.7676 50.646 8.74761 51.766 8.71761 52.886C8.67761 54.216 9.29761 54.746 10.5976 54.746C15.9476 54.726 21.2876 54.716 26.6376 54.746C28.0476 54.756 28.6976 54.226 28.6276 52.776C28.5676 51.586 28.5576 50.386 28.6876 49.206C28.8976 47.196 30.3776 45.796 32.2176 45.866C34.1976 45.936 35.4676 47.076 35.7076 48.996C36.0376 51.656 36.0376 54.356 35.7076 57.016C35.4676 58.996 34.0676 59.906 32.1576 60.116C31.3876 60.206 30.5776 60.316 30.7276 61.376C30.8576 62.296 31.6476 62.206 32.2976 62.226C33.0376 62.256 33.7876 62.176 34.5276 62.246C36.1876 62.396 36.8076 61.666 36.7176 60.036C36.5676 57.336 37.4376 55.196 40.2276 54.256C41.2276 53.916 41.2176 53.056 41.2176 52.236C41.2176 44.416 41.1976 36.596 41.2376 28.776C41.2376 27.096 40.4776 26.536 38.9276 26.606C37.5976 26.666 36.2476 26.556 34.9176 26.626C32.9676 26.736 31.1976 26.556 30.0176 23.716C29.6076 26.866 27.7376 26.596 26.0276 26.606C22.9876 26.616 19.9376 26.576 16.8976 26.606C15.3176 26.616 14.3976 25.926 14.0976 24.356C13.1076 19.086 11.8976 20.246 16.9076 16.876C21.4776 13.806 26.0776 10.806 30.6176 7.70596C31.8176 6.88596 32.6476 6.71596 33.9176 7.72596C39.6076 12.236 45.8076 12.226 51.6876 7.75596C52.8576 6.86596 53.7276 6.92596 54.8676 7.68596C60.1776 11.236 65.5176 14.756 70.8776 18.236C72.0876 19.026 72.5576 19.826 72.1976 21.356C70.9676 26.606 71.0376 26.616 65.6476 26.616C63.4176 26.616 61.1876 26.606 58.9676 26.616C57.3876 26.626 55.9176 26.506 55.5576 23.956C53.6576 27.696 50.6476 26.486 48.0676 26.586C44.3076 26.726 44.2976 26.626 44.2976 30.436C44.2976 37.436 44.3276 44.436 44.2776 51.436C44.2676 52.976 44.4776 54.056 46.1576 54.736C48.2576 55.586 48.9576 57.546 48.7876 59.716C48.6376 61.666 49.3676 62.496 51.3276 62.256C52.0576 62.166 52.8076 62.236 53.5576 62.226C54.4676 62.216 55.0576 61.766 54.7876 60.836C54.1576 58.586 54.7376 55.926 52.2376 54.266C51.0876 53.496 51.3976 52.146 52.4576 51.186C53.0376 50.666 53.7576 50.496 54.5076 50.396C56.881 50.056 58.0676 48.706 58.0676 46.346C58.0676 43.666 58.0876 40.986 58.0976 38.306C58.7476 37.376 59.3676 37.446 59.9576 38.366V38.386ZM42.8376 20.876C39.9476 20.876 37.0476 20.856 34.1576 20.896C33.4776 20.896 32.4376 20.546 32.2676 21.526C32.1176 22.406 32.6776 23.296 33.5576 23.676C34.0776 23.896 34.7176 23.866 35.3076 23.866C39.0176 23.886 42.7276 23.876 46.4376 23.866C48.0676 23.866 49.7076 23.886 51.3376 23.816C52.6376 23.756 53.2076 22.676 53.2176 21.686C53.2276 20.446 51.9976 20.926 51.2976 20.906C48.4776 20.846 45.6576 20.876 42.8376 20.876ZM63.3476 20.876C62.0176 20.876 60.6976 20.836 59.3676 20.896C58.7176 20.926 57.6776 20.576 57.7976 21.816C57.8876 22.676 58.0576 23.756 59.1976 23.786C62.0676 23.866 64.9476 23.876 67.8076 23.776C68.9176 23.736 69.1176 22.656 69.1576 21.776C69.2076 20.556 68.1876 20.926 67.5376 20.896C66.1376 20.836 64.7376 20.876 63.3376 20.876H63.3476ZM22.2076 20.876C20.8076 20.876 19.3976 20.856 17.9976 20.876C17.2476 20.886 16.3976 20.906 16.4676 21.996C16.5276 22.926 16.8176 23.806 17.9876 23.816C20.6476 23.846 23.3076 23.826 25.9676 23.836C27.1076 23.836 27.5176 23.086 27.6076 22.126C27.7276 20.896 26.7976 20.896 25.9776 20.886C24.7176 20.856 23.4676 20.886 22.2076 20.886V20.876ZM18.7376 62.246C20.5876 62.246 22.4376 62.266 24.2976 62.246C24.8576 62.246 25.6476 62.386 25.7176 61.566C25.7876 60.666 25.1276 60.216 24.2976 60.216C20.5976 60.186 16.8876 60.186 13.1876 60.206C12.3876 60.206 11.6276 60.536 11.6576 61.456C11.6776 62.446 12.5776 62.246 13.1976 62.256C15.0476 62.296 16.8976 62.266 18.7576 62.266L18.7376 62.246Z" fill="#ffffff"/>
<path d="M18.7076 35.956C22.0476 35.956 25.3776 35.916 28.7176 35.966C32.8176 36.036 35.3476 40.536 33.4076 44.186C33.0776 44.806 32.5276 44.886 31.9376 45.006C28.7176 45.666 27.6076 47.026 27.5276 50.366C27.4676 52.746 26.2143 53.9394 23.7676 53.946C20.2876 53.946 16.7976 53.946 13.3176 53.946C9.58762 53.946 9.60762 53.946 9.53762 50.296C9.51762 49.416 9.5276 48.476 9.2376 47.666C8.6976 46.166 7.53762 45.146 5.91762 45.096C4.10762 45.046 3.6176 44.136 3.7376 42.536C3.7876 41.876 3.73761 41.196 3.74761 40.526C3.81761 37.476 5.1876 36.036 8.2676 35.976C11.7476 35.906 15.2376 35.956 18.7176 35.956H18.7076ZM12.8976 44.776C13.1276 44.696 13.5276 44.656 13.8176 44.456C17.0076 42.296 20.1876 42.356 23.3976 44.396C24.4376 45.056 25.3976 44.796 26.1676 43.906C26.8276 43.136 26.8476 42.286 26.2176 41.466C25.4776 40.506 24.5076 40.276 23.4576 40.836C20.2576 42.556 17.0976 42.646 13.8976 40.836C13.0576 40.356 12.1576 40.426 11.3976 41.056C10.7176 41.616 10.3976 42.376 10.7276 43.236C11.0676 44.146 11.7976 44.616 12.8876 44.756L12.8976 44.776Z" fill="#ffffff"/>
<path d="M59.9576 38.386C59.3676 37.466 58.7476 37.396 58.0976 38.326C57.4476 40.286 57.9476 42.316 57.7676 44.306C57.7176 44.946 57.9776 45.766 57.2276 46.106C56.4976 46.436 55.9976 45.786 55.5176 45.346C51.3376 41.476 52.2676 34.336 57.2776 31.686C58.3376 31.126 59.3076 31.006 60.4376 31.546C65.7076 34.036 66.7876 41.626 62.3876 45.436C61.9476 45.816 61.4976 46.366 60.8576 46.146C60.1576 45.896 60.3076 45.176 60.2676 44.596C60.0976 42.536 60.5876 40.436 59.9476 38.396L59.9576 38.386Z" fill="#ffffff"/>
<path d="M42.6776 10.2059C39.7076 10.1659 37.1076 9.0459 34.7576 7.2159C33.7476 6.4359 33.5576 5.7759 34.7276 4.9959C37.0176 3.4859 39.3076 1.9659 41.5776 0.4159C42.3476 -0.1041 43.0576 -0.1541 43.8376 0.3659C46.1776 1.9459 48.5276 3.5059 50.8676 5.0659C51.8876 5.7459 51.8776 6.3859 50.9076 7.1359C48.4876 8.9959 45.8276 10.1759 42.6776 10.1959V10.2059Z" fill="#ffffff"/>
</svg>
