<svg width="204" height="49" viewBox="0 0 204 49" fill="none" xmlns="http://www.w3.org/2000/svg">
<g clip-path="url(#clip0_554_437)">
<path d="M47.8141 45.3848C46.8885 44.9133 46.1623 44.2559 45.6355 43.4128C45.1087 42.5697 44.8381 41.6123 44.8381 40.5406C44.8381 39.4688 45.1087 38.5114 45.6355 37.6683C46.1623 36.8252 46.8885 36.1679 47.8141 35.6963C48.7396 35.2247 49.779 34.9961 50.9324 34.9961C52.0857 34.9961 53.1394 35.2247 54.0649 35.6963C54.9904 36.1679 55.7166 36.8252 56.2577 37.6683C56.7845 38.5114 57.0551 39.4688 57.0551 40.5406C57.0551 41.6123 56.7845 42.5697 56.2577 43.4128C55.7309 44.2559 55.0047 44.9133 54.0649 45.3848C53.1394 45.8564 52.0857 46.085 50.9324 46.085C49.779 46.085 48.7253 45.8564 47.8141 45.3848ZM53.0967 43.7844C53.7232 43.47 54.2073 43.027 54.5633 42.4697C54.9192 41.8981 55.0901 41.2551 55.0901 40.5406C55.0901 39.8261 54.9192 39.1687 54.5633 38.6114C54.2073 38.0541 53.7232 37.6111 53.0967 37.2968C52.4702 36.9824 51.7582 36.8252 50.9466 36.8252C50.135 36.8252 49.423 36.9824 48.8108 37.2968C48.1843 37.6111 47.7001 38.0398 47.3442 38.6114C46.9882 39.183 46.8173 39.8261 46.8173 40.5406C46.8173 41.2551 46.9882 41.9124 47.3442 42.4697C47.7001 43.0413 48.1843 43.47 48.8108 43.7844C49.4373 44.0987 50.1492 44.2559 50.9466 44.2559C51.744 44.2559 52.4844 44.0987 53.0967 43.7844Z" fill="white"/>
<path d="M60.9992 45.5702C60.33 45.2273 59.8031 44.7414 59.4187 44.1269C59.0342 43.5125 58.8491 42.8123 58.8491 42.0406C58.8491 41.269 59.0342 40.5688 59.4187 39.9543C59.8031 39.3398 60.33 38.854 60.9992 38.511C61.6684 38.1681 62.4231 37.9966 63.2632 37.9966C63.9181 37.9966 64.5162 38.0966 65.0715 38.2967C65.6268 38.4967 66.0967 38.7968 66.4954 39.1684L65.2139 40.383C65.0003 40.1544 64.7298 39.9829 64.388 39.8543C64.0463 39.7257 63.6761 39.6685 63.2632 39.6685C62.4943 39.6685 61.882 39.8828 61.3979 40.3258C60.9137 40.7688 60.6717 41.3404 60.6717 42.0406C60.6717 42.7408 60.9137 43.3124 61.3979 43.7554C61.882 44.1984 62.5085 44.4127 63.2916 44.4127C64.1175 44.4127 64.7867 44.1555 65.2851 43.6268L66.5666 44.8271C66.1536 45.2416 65.6695 45.5416 65.1142 45.7703C64.5589 45.9989 63.9324 46.0989 63.2632 46.0989C62.4231 46.0989 61.6684 45.9275 60.9849 45.5845L60.9992 45.5702Z" fill="white"/>
<path d="M70.9522 44.0272C71.4079 44.3558 71.9916 44.513 72.6893 44.513C73.1308 44.513 73.5437 44.4416 73.9424 44.2987C74.3411 44.1558 74.6828 43.9557 74.996 43.6842L76.1209 44.856C75.6937 45.2418 75.1954 45.5419 74.5974 45.7562C73.9993 45.9706 73.3871 46.0706 72.7321 46.0706C71.8635 46.0706 71.0946 45.9134 70.4254 45.5848C69.7561 45.2561 69.2151 44.7845 68.8306 44.1701C68.4462 43.5556 68.2468 42.8411 68.2468 42.0266C68.2468 41.2121 68.4319 40.5404 68.8021 39.926C69.1724 39.3115 69.685 38.8399 70.3399 38.4827C70.9949 38.1397 71.7638 37.9683 72.6182 37.9683C73.4725 37.9683 74.1844 38.1397 74.7967 38.4827C75.3947 38.8257 75.8646 39.2686 76.1636 39.8259C76.4769 40.3833 76.6335 40.9691 76.6335 41.5979C76.6335 41.7408 76.6335 41.9123 76.5908 42.1123C76.5623 42.3124 76.5338 42.4982 76.5054 42.6553H70.0836C70.2118 43.2269 70.4966 43.6699 70.9664 43.9986L70.9522 44.0272ZM70.9522 40.0403C70.525 40.3404 70.2403 40.7548 70.0979 41.2978H74.8109C74.754 40.7977 74.5404 40.3833 74.1417 40.0689C73.743 39.7545 73.2162 39.583 72.5612 39.583C71.9062 39.583 71.3936 39.7402 70.9664 40.0403H70.9522Z" fill="white"/>
<path d="M85.2764 38.8254C85.8745 39.3827 86.1877 40.1972 86.1877 41.269V45.8846H84.6357L84.5075 44.7128C84.18 45.1558 83.7529 45.4845 83.1976 45.7274C82.6422 45.9703 82.0727 46.0847 81.4747 46.0847C80.9621 46.0847 80.4779 45.9846 80.0223 45.7989C79.5667 45.6131 79.2107 45.3273 78.9401 44.9558C78.6696 44.5842 78.5272 44.1269 78.5272 43.6125C78.5272 42.7837 78.8547 42.1692 79.5239 41.7548C80.1932 41.3404 80.9905 41.1404 81.9303 41.1404C82.7562 41.1404 83.5962 41.2547 84.4079 41.4833V41.3118C84.4079 40.1829 83.7102 39.6256 82.329 39.6256C81.8733 39.6256 81.4177 39.6828 80.9621 39.8114C80.5064 39.94 80.0935 40.1258 79.7375 40.383L79.0256 39.0826C79.467 38.7539 80.0081 38.4967 80.6346 38.2967C81.2611 38.0966 81.9303 37.9966 82.6422 37.9966C83.7956 37.9966 84.6642 38.2681 85.2764 38.8254ZM83.0836 44.327C83.4681 44.1698 83.7814 43.9555 84.0377 43.684C84.294 43.4124 84.4079 43.0838 84.4079 42.7265C83.7244 42.5265 82.9982 42.4264 82.2293 42.4264C81.6455 42.4264 81.1899 42.5122 80.8482 42.698C80.5064 42.8837 80.3356 43.1552 80.3356 43.5411C80.3356 43.8697 80.4779 44.1269 80.7485 44.2984C81.019 44.4842 81.3892 44.5699 81.8591 44.5699C82.2863 44.5699 82.685 44.4985 83.0836 44.3413V44.327Z" fill="white"/>
<path d="M95.0158 38.3825C95.5284 38.6398 95.9271 38.997 96.2261 39.4686C96.5109 39.9401 96.6533 40.4689 96.6533 41.069V45.8847H94.8735V41.3977C94.8735 40.8833 94.7026 40.4546 94.3324 40.1402C93.9764 39.8115 93.5065 39.6543 92.9227 39.6543C92.3389 39.6543 91.7836 39.8115 91.3137 40.1402C90.8439 40.4689 90.616 40.9118 90.616 41.4692V45.8704H88.8362V38.1825H90.4025L90.5164 39.2685C90.8154 38.8541 91.1998 38.5397 91.684 38.3254C92.1681 38.0967 92.7091 37.9824 93.2929 37.9824C93.9194 37.9824 94.489 38.111 95.0016 38.3682L95.0158 38.3825Z" fill="white"/>
<path d="M108.187 41.755H106.094V45.8848H104.2V35.1816H109.283C110.081 35.1816 110.764 35.3245 111.348 35.596C111.932 35.8676 112.387 36.2534 112.701 36.7535C113.014 37.2537 113.17 37.8253 113.17 38.4683C113.17 39.3114 112.914 40.0116 112.416 40.5689C111.917 41.1262 111.205 41.4978 110.308 41.6692L113.469 45.8848H111.134L108.187 41.755ZM106.094 39.9687H109.255C109.881 39.9687 110.365 39.8401 110.707 39.5829C111.035 39.3257 111.205 38.9542 111.205 38.4683C111.205 37.9825 111.035 37.6252 110.707 37.3537C110.365 37.0965 109.895 36.9679 109.255 36.9679H106.094V39.9687Z" fill="white"/>
<path d="M117.599 44.0272C118.054 44.3558 118.638 44.513 119.336 44.513C119.777 44.513 120.19 44.4416 120.589 44.2987C120.988 44.1558 121.329 43.9557 121.643 43.6842L122.767 44.856C122.34 45.2418 121.842 45.5419 121.244 45.7562C120.646 45.9706 120.034 46.0706 119.379 46.0706C118.51 46.0706 117.741 45.9134 117.072 45.5848C116.403 45.2561 115.862 44.7845 115.477 44.1701C115.093 43.5556 114.893 42.8411 114.893 42.0266C114.893 41.2121 115.078 40.5404 115.449 39.926C115.819 39.3115 116.331 38.8399 116.986 38.4827C117.641 38.1397 118.41 37.9683 119.265 37.9683C120.119 37.9683 120.831 38.1397 121.443 38.4827C122.041 38.8257 122.511 39.2686 122.81 39.8259C123.123 40.3833 123.28 40.9691 123.28 41.5979C123.28 41.7408 123.28 41.9123 123.237 42.1123C123.209 42.3124 123.18 42.4982 123.152 42.6553H116.73C116.858 43.2269 117.143 43.6699 117.613 43.9986L117.599 44.0272ZM117.599 40.0403C117.172 40.3404 116.887 40.7548 116.744 41.2978H121.457C121.4 40.7977 121.187 40.3833 120.788 40.0689C120.39 39.7545 119.863 39.583 119.208 39.583C118.553 39.583 118.04 39.7402 117.613 40.0403H117.599Z" fill="white"/>
<path d="M131.937 38.8254C132.535 39.3827 132.848 40.1972 132.848 41.269V45.8846H131.296L131.168 44.7128C130.841 45.1558 130.414 45.4845 129.858 45.7274C129.303 45.9703 128.733 46.0847 128.135 46.0847C127.623 46.0847 127.139 45.9846 126.683 45.7989C126.227 45.6131 125.871 45.3273 125.601 44.9558C125.33 44.5842 125.188 44.1269 125.188 43.6125C125.188 42.7837 125.515 42.1692 126.185 41.7548C126.854 41.3404 127.651 41.1404 128.591 41.1404C129.417 41.1404 130.257 41.2547 131.069 41.4833V41.3118C131.069 40.1829 130.371 39.6256 128.99 39.6256C128.534 39.6256 128.078 39.6828 127.623 39.8114C127.167 39.94 126.754 40.1258 126.398 40.383L125.686 39.0826C126.128 38.7539 126.669 38.4967 127.295 38.2967C127.922 38.0966 128.591 37.9966 129.303 37.9966C130.456 37.9966 131.325 38.2681 131.937 38.8254ZM129.744 44.327C130.129 44.1698 130.442 43.9555 130.698 43.684C130.955 43.4124 131.069 43.0838 131.069 42.7265C130.385 42.5265 129.659 42.4264 128.89 42.4264C128.306 42.4264 127.851 42.5122 127.509 42.698C127.167 42.8837 126.996 43.1552 126.996 43.5411C126.996 43.8697 127.139 44.1269 127.409 44.2984C127.68 44.4842 128.05 44.5699 128.52 44.5699C128.947 44.5699 129.346 44.4985 129.744 44.3413V44.327Z" fill="white"/>
<path d="M135.568 34.4243H137.348V45.8991H135.568V34.4243Z" fill="white"/>
<path d="M146.361 45.3276C145.72 45.8421 144.909 46.085 143.912 46.085C142.915 46.085 142.132 45.8421 141.591 45.3419C141.05 44.8418 140.78 44.113 140.78 43.1556V39.8117H139.085V38.2113H140.78V35.7534H142.559V38.2113H145.849V39.8117H142.559V43.0413C142.559 43.9558 143.058 44.4131 144.04 44.4131C144.624 44.4131 145.137 44.2416 145.578 43.8844L146.361 45.3419V45.3276Z" fill="white"/>
<path d="M156.528 38.1968L151.729 48.9999H150.035L151.316 45.9419L147.671 38.1968H149.608L152.199 43.8413L154.577 38.1968H156.528Z" fill="white"/>
<path d="M190.672 0V4.3727H193.036V22.8781H197.393V0H190.672Z" fill="white"/>
<path d="M184.507 11.4319L184.621 11.2747C185.39 10.1172 185.845 8.73112 185.845 7.24497C185.845 6.65908 185.774 6.08749 185.646 5.53018C184.877 2.35783 182.044 0 178.641 0C174.668 0 171.436 3.2438 171.436 7.23068C171.436 7.31642 171.436 7.41645 171.436 7.50219H175.793C175.793 7.41645 175.793 7.33071 175.793 7.23068C175.793 5.65879 177.074 4.3727 178.641 4.3727C180.207 4.3727 181.574 5.57305 181.488 7.23068C181.46 7.95946 180.819 9.10265 180.577 9.4599C180.335 9.81715 171.322 22.8781 171.322 22.8781H186.273V18.5054H179.623L184.507 11.4319Z" fill="white"/>
<path d="M202.918 18.9199C203.245 19.1057 203.516 19.3629 203.701 19.7059C203.886 20.0488 203.986 20.4204 203.986 20.8491C203.986 21.2778 203.886 21.6636 203.701 21.9923C203.516 22.3352 203.245 22.5924 202.918 22.7782C202.59 22.964 202.206 23.064 201.793 23.064C201.38 23.064 200.996 22.964 200.668 22.7782C200.341 22.5924 200.07 22.3352 199.885 21.9923C199.7 21.6493 199.6 21.2778 199.6 20.8491C199.6 20.4204 199.7 20.0488 199.885 19.7059C200.07 19.3629 200.341 19.1057 200.668 18.9199C201.01 18.7342 201.38 18.6484 201.793 18.6484C202.206 18.6484 202.59 18.7485 202.918 18.9199ZM202.719 22.4495C202.989 22.2924 203.203 22.078 203.359 21.8065C203.516 21.535 203.587 21.2206 203.587 20.8491C203.587 20.4775 203.516 20.1775 203.359 19.8917C203.203 19.6201 202.989 19.4058 202.719 19.2486C202.448 19.0914 202.135 19.02 201.793 19.02C201.451 19.02 201.138 19.0914 200.853 19.2486C200.583 19.4058 200.369 19.6201 200.213 19.8917C200.056 20.1632 199.985 20.4918 199.985 20.8491C199.985 21.2063 200.056 21.5207 200.213 21.8065C200.369 22.078 200.583 22.3066 200.853 22.4495C201.124 22.6067 201.437 22.6782 201.793 22.6782C202.149 22.6782 202.448 22.6067 202.719 22.4495ZM202.533 20.8348C202.434 20.9634 202.277 21.0348 202.092 21.0634L202.79 22.0208H202.306L201.651 21.0777H201.309V22.0208H200.924V19.663H201.921C202.163 19.663 202.348 19.7345 202.491 19.8488C202.633 19.9774 202.704 20.1489 202.704 20.3632C202.704 20.549 202.647 20.7062 202.548 20.8348M201.309 20.7062H201.921C202.177 20.7062 202.306 20.5919 202.306 20.3632C202.306 20.2489 202.277 20.1775 202.206 20.1203C202.135 20.0631 202.049 20.0346 201.921 20.0346H201.309V20.7205V20.7062Z" fill="white"/>
<path d="M156.257 0L149.864 9.24555L143.485 0H138.316L147.7 13.604V22.8781H152.042V13.604L161.426 0H156.257Z" fill="white"/>
<path d="M136.309 7.67367C136.309 3.44386 132.877 0 128.662 0H118.823V22.8781H123.18V15.3616H125.957L131.14 22.8781H136.309L130.898 15.033C134.03 14.0755 136.309 11.1461 136.309 7.68796M128.662 11.0032H123.18V4.3727H128.662C130.485 4.3727 131.966 5.85885 131.966 7.68796C131.966 9.51706 130.485 11.0032 128.662 11.0032Z" fill="white"/>
<path d="M108.671 13.4468C108.671 16.2333 106.407 18.5054 103.63 18.5054C100.854 18.5054 98.5898 16.2333 98.5898 13.4468V0H94.2327V13.4468C94.2327 18.6483 98.4474 22.8781 103.63 22.8781C108.813 22.8781 113.028 18.6483 113.028 13.4468V0H108.671V13.4468Z" fill="white"/>
<path d="M70.6246 0V4.3727H77.3596V22.8781H81.7025V4.3727H88.4374V0H70.6246Z" fill="white"/>
<path d="M60.4866 0V15.3759L49.8787 0H45.5216V22.8781H49.8787V7.50219L60.4866 22.8781H64.8295V0H60.4866Z" fill="white"/>
<path d="M24.5193 0V22.8781H39.7121V18.5054H28.8764V13.6183H37.5763V9.24555H28.8764V4.3727H39.7121V0H24.5193Z" fill="white"/>
<path d="M11.3911 4.3726C13.2564 4.3726 14.9508 5.10139 16.2181 6.30174L18.7241 2.6864C16.7449 1.01448 14.1819 0.01419 11.4053 0.01419C5.09751 -9.98592e-05 0 5.11568 0 11.4318C0 17.7479 5.09751 22.8637 11.3911 22.8637C14.1819 22.8637 16.7306 21.8634 18.7098 20.1915L16.2038 16.5762C14.9366 17.7622 13.2421 18.5053 11.3768 18.5053C7.48963 18.5053 4.32861 15.3329 4.32861 11.4318C4.32861 7.53067 7.48963 4.35831 11.3768 4.35831" fill="white"/>
</g>
<defs>
<clipPath id="clip0_554_437">
<rect width="204" height="49" fill="white"/>
</clipPath>
</defs>
</svg>
