<?xml version="1.0" encoding="UTF-8"?>
<svg id="Capa_2" data-name="Capa 2" xmlns="http://www.w3.org/2000/svg" viewBox="0 0 408.62 113.77" class="h-8" width="200px">
  <defs>
    <style>
      .cls-1 {
        fill: #D7C5AF;
      }

      .cls-1, .cls-2 {
        stroke-width: 0px;
      }

      .cls-2 {
        fill: #D7C5AF;
      }
    </style>
  </defs>
  <g id="Capa_1-2" data-name="Capa 1">
    <g>
      <g>
        <polygon class="cls-2" points="184.96 48 183.57 48 183.58 .11 206.95 19.67 206.06 20.74 184.97 3.08 184.96 48"/>
        <polygon class="cls-2" points="234.81 48 233.42 48 233.42 11.85 199.1 39.46 199.1 26.06 231.22 0 233.43 0 200.49 26.73 200.49 36.43 234.81 8.9 234.81 48"/>
        <polygon class="cls-2" points="202.68 48 200.49 48 226.18 26.8 226.18 28.62 202.68 48"/>
      </g>
      <g>
        <rect class="cls-1" x="93.67" y="65.85" width="2.46" height="41.82"/>
        <path class="cls-1" d="m202.89,88.34c-1.01-.48-4.07-1.72-9.35-3.78-4.75-1.81-7.74-3.57-8.9-5.21-.56-.77-.83-1.57-.83-2.43,0-2.7,1.31-4.85,4-6.57,2.11-1.36,4.55-2.05,7.23-2.05,3.67,0,6.67,1.14,8.92,3.39,1.56,1.56,2.32,3.27,2.32,5.22v1.23h2.45v-1.23c0-3.3-1.55-6.08-4.62-8.27-2.6-1.86-5.66-2.8-9.08-2.8-4.37,0-7.95,1.39-10.65,4.13-2.02,2.06-3.04,4.4-3.04,6.94,0,3.15,2.37,5.91,7.05,8.21.96.44,4.01,1.65,9.34,3.71,4.71,1.82,7.71,3.57,8.91,5.22.6.81.89,1.64.89,2.55,0,2.5-1.35,4.57-4.12,6.32-2.43,1.52-5.25,2.29-8.38,2.29-4.07,0-7.4-1.15-9.89-3.41-1.71-1.56-2.56-3.27-2.6-5.2v-1.23h-2.46v1.23c0,3.19,1.62,5.91,4.8,8.09,2.84,1.97,6.25,2.98,10.14,2.98,4.59,0,8.45-1.36,11.46-4.05,2.27-2.1,3.44-4.46,3.48-7.02,0-3.19-2.39-5.97-7.1-8.26Z"/>
        <path class="cls-1" d="m287.51,106.08c-2.6-8.31-5.19-13.99-7.7-16.87h0c-.48-.54-1.01-1.07-1.58-1.58,3.06-.66,5.53-2.23,7.35-4.68,1.31-1.81,1.97-3.82,1.97-5.98,0-3.41-1.49-6.27-4.43-8.5-2.33-1.74-5.05-2.63-8.08-2.63l-17.3.06-.13.02c-.62.14-1.01.55-1.09,1.21v19.5s-.06.66-.06.66v20.38h2.46v-19.69h15.75c2.11,1.47,3.8,3.22,5.02,5.18,1.68,2.81,3.5,7.39,5.45,13.7l.34.8h2.52l-.49-1.6Zm-28.6-37.77h16.13c3.3,0,5.9,1.1,7.94,3.36,1.42,1.61,2.11,3.34,2.11,5.31,0,2.75-1.2,4.92-3.66,6.64-1.87,1.27-4,1.92-6.33,1.92l-16.19.06v-17.29Z"/>
        <path class="cls-1" d="m328.69,68.3v-2.45h-28.67l-.14.02c-.62.14-1.01.55-1.09,1.21v39.37l.02.14c.14.62.55,1.01,1.21,1.09h28.67v-2.46h-27.44v-17.23h20.1v-2.45h-20.1v-17.23h27.44Z"/>
        <path class="cls-1" d="m369.85,68.3v-2.45h-28.67l-.14.02c-.62.14-1.01.55-1.09,1.21v39.37l.02.14c.14.62.55,1.01,1.21,1.09h28.67v-2.46h-27.44v-17.23h20.1v-2.45h-20.1v-17.23h27.44Z"/>
        <polygon class="cls-1" points="19.34 104.07 0 63.3 0 107.67 2.39 107.67 2.39 73.92 19.41 109.78 35.36 74.13 35.36 107.78 37.75 107.78 37.75 62.93 19.34 104.07"/>
        <path class="cls-1" d="m84.71,106.86l-19.13-42.48-3.04,6.69-3.24-5.22h-2.89l4.92,7.89-15.46,34.05h2.63l14.36-31.61,19.51,31.28.15.33h2.76l-.57-.92Zm-9.57-15.45l-11.08-17.89,1.51-3.33,9.57,21.22Z"/>
        <polygon class="cls-1" points="141.48 108.94 141.48 65.88 139.09 65.88 139.09 101.94 110.12 64.47 110.12 71 106.17 65.85 103.12 65.85 105.22 68.67 110.12 75.05 110.13 107.95 112.52 107.95 112.52 78.16 135.3 107.78 138.35 107.78 112.52 74.12 112.52 71.48 141.48 108.94"/>
        <path class="cls-1" d="m247.57,68.3v-2.45h-32.28v2.45h12.82v38.92l-.06.45h2.51v-.37l4.96-39h12.04Zm-14.51,0l-2.49,19.61v-19.61h2.49Z"/>
        <path class="cls-1" d="m408.62,68.3v-2.45h-32.28v2.45h12.82v38.92l-.06.45h2.51v-.37l4.96-39h12.04Zm-14.51,0l-2.49,19.61v-19.61h2.49Z"/>
      </g>
      
    </g>
  </g>
</svg>